<svg width="1650" height="950" viewBox="0 0 1650 950" fill="none" xmlns="http://www.w3.org/2000/svg">
<rect y="350" width="250" height="250" fill="#DCBFDC"/>
<path d="M70.0686 498L65.7486 491.76H65.4926H60.9806V498H55.7966V475.6H65.4926C67.4766 475.6 69.194 475.931 70.6446 476.592C72.1166 477.253 73.2473 478.192 74.0366 479.408C74.826 480.624 75.2206 482.064 75.2206 483.728C75.2206 485.392 74.8153 486.832 74.0046 488.048C73.2153 489.243 72.0846 490.16 70.6126 490.8L75.6366 498H70.0686ZM69.9726 483.728C69.9726 482.469 69.5673 481.509 68.7566 480.848C67.946 480.165 66.762 479.824 65.2046 479.824H60.9806V487.632H65.2046C66.762 487.632 67.946 487.291 68.7566 486.608C69.5673 485.925 69.9726 484.965 69.9726 483.728Z" fill="black"/>
<path d="M95.8399 489.456C95.8399 489.52 95.8079 489.968 95.7439 490.8H82.7199C82.9545 491.867 83.5092 492.709 84.3839 493.328C85.2585 493.947 86.3465 494.256 87.6479 494.256C88.5439 494.256 89.3332 494.128 90.0159 493.872C90.7199 493.595 91.3705 493.168 91.9679 492.592L94.6239 495.472C93.0026 497.328 90.6345 498.256 87.5199 498.256C85.5785 498.256 83.8612 497.883 82.3679 497.136C80.8745 496.368 79.7225 495.312 78.9119 493.968C78.1012 492.624 77.6959 491.099 77.6959 489.392C77.6959 487.707 78.0905 486.192 78.8799 484.848C79.6905 483.483 80.7892 482.427 82.1759 481.68C83.5839 480.912 85.1519 480.528 86.8799 480.528C88.5652 480.528 90.0905 480.891 91.4559 481.616C92.8212 482.341 93.8879 483.387 94.6559 484.752C95.4452 486.096 95.8399 487.664 95.8399 489.456ZM86.9119 484.304C85.7812 484.304 84.8319 484.624 84.0639 485.264C83.2959 485.904 82.8265 486.779 82.6559 487.888H91.1359C90.9652 486.8 90.4959 485.936 89.7279 485.296C88.9599 484.635 88.0212 484.304 86.9119 484.304Z" fill="black"/>
<path d="M99.1634 474.256H104.155V498H99.1634V474.256Z" fill="black"/>
<path d="M115.732 480.528C118.399 480.528 120.447 481.168 121.876 482.448C123.306 483.707 124.02 485.616 124.02 488.176V498H119.348V495.856C118.41 497.456 116.66 498.256 114.1 498.256C112.778 498.256 111.626 498.032 110.644 497.584C109.684 497.136 108.948 496.517 108.436 495.728C107.924 494.939 107.668 494.043 107.668 493.04C107.668 491.44 108.266 490.181 109.46 489.264C110.676 488.347 112.543 487.888 115.06 487.888H119.028C119.028 486.8 118.698 485.968 118.036 485.392C117.375 484.795 116.383 484.496 115.06 484.496C114.143 484.496 113.236 484.645 112.34 484.944C111.466 485.221 110.719 485.605 110.1 486.096L108.308 482.608C109.247 481.947 110.367 481.435 111.668 481.072C112.991 480.709 114.346 480.528 115.732 480.528ZM115.348 494.896C116.202 494.896 116.959 494.704 117.62 494.32C118.282 493.915 118.751 493.328 119.028 492.56V490.8H115.604C113.556 490.8 112.532 491.472 112.532 492.816C112.532 493.456 112.778 493.968 113.268 494.352C113.78 494.715 114.474 494.896 115.348 494.896Z" fill="black"/>
<path d="M139.642 497.168C139.152 497.531 138.544 497.808 137.818 498C137.114 498.171 136.368 498.256 135.578 498.256C133.53 498.256 131.941 497.733 130.81 496.688C129.701 495.643 129.146 494.107 129.146 492.08V485.008H126.49V481.168H129.146V476.976H134.138V481.168H138.426V485.008H134.138V492.016C134.138 492.741 134.32 493.307 134.682 493.712C135.066 494.096 135.6 494.288 136.282 494.288C137.072 494.288 137.744 494.075 138.298 493.648L139.642 497.168Z" fill="black"/>
<path d="M142.445 480.784H147.437V498H142.445V480.784ZM144.941 478.384C144.023 478.384 143.277 478.117 142.701 477.584C142.125 477.051 141.837 476.389 141.837 475.6C141.837 474.811 142.125 474.149 142.701 473.616C143.277 473.083 144.023 472.816 144.941 472.816C145.858 472.816 146.605 473.072 147.181 473.584C147.757 474.096 148.045 474.736 148.045 475.504C148.045 476.336 147.757 477.029 147.181 477.584C146.605 478.117 145.858 478.384 144.941 478.384Z" fill="black"/>
<path d="M160.262 498.256C158.448 498.256 156.816 497.883 155.366 497.136C153.936 496.368 152.816 495.312 152.006 493.968C151.195 492.624 150.79 491.099 150.79 489.392C150.79 487.685 151.195 486.16 152.006 484.816C152.816 483.472 153.936 482.427 155.366 481.68C156.816 480.912 158.448 480.528 160.262 480.528C162.075 480.528 163.696 480.912 165.126 481.68C166.555 482.427 167.675 483.472 168.486 484.816C169.296 486.16 169.702 487.685 169.702 489.392C169.702 491.099 169.296 492.624 168.486 493.968C167.675 495.312 166.555 496.368 165.126 497.136C163.696 497.883 162.075 498.256 160.262 498.256ZM160.262 494.16C161.542 494.16 162.587 493.733 163.398 492.88C164.23 492.005 164.646 490.843 164.646 489.392C164.646 487.941 164.23 486.789 163.398 485.936C162.587 485.061 161.542 484.624 160.262 484.624C158.982 484.624 157.926 485.061 157.094 485.936C156.262 486.789 155.846 487.941 155.846 489.392C155.846 490.843 156.262 492.005 157.094 492.88C157.926 493.733 158.982 494.16 160.262 494.16Z" fill="black"/>
<path d="M183.502 480.528C185.636 480.528 187.353 481.168 188.654 482.448C189.977 483.728 190.638 485.627 190.638 488.144V498H185.646V488.912C185.646 487.547 185.348 486.533 184.75 485.872C184.153 485.189 183.289 484.848 182.158 484.848C180.9 484.848 179.897 485.243 179.15 486.032C178.404 486.8 178.03 487.952 178.03 489.488V498H173.038V480.784H177.806V482.8C178.468 482.075 179.289 481.52 180.27 481.136C181.252 480.731 182.329 480.528 183.502 480.528Z" fill="black"/>
<rect x="352" y="2" width="246" height="946" fill="white" stroke="#C594C5" stroke-width="4"/>
<path d="M415.412 486L411.092 479.76H410.836H406.324V486H401.14V463.6H410.836C412.82 463.6 414.538 463.931 415.988 464.592C417.46 465.253 418.591 466.192 419.38 467.408C420.17 468.624 420.564 470.064 420.564 471.728C420.564 473.392 420.159 474.832 419.348 476.048C418.559 477.243 417.428 478.16 415.956 478.8L420.98 486H415.412ZM415.316 471.728C415.316 470.469 414.911 469.509 414.1 468.848C413.29 468.165 412.106 467.824 410.548 467.824H406.324V475.632H410.548C412.106 475.632 413.29 475.291 414.1 474.608C414.911 473.925 415.316 472.965 415.316 471.728Z" fill="black"/>
<path d="M441.184 477.456C441.184 477.52 441.152 477.968 441.088 478.8H428.064C428.298 479.867 428.853 480.709 429.728 481.328C430.602 481.947 431.69 482.256 432.992 482.256C433.888 482.256 434.677 482.128 435.36 481.872C436.064 481.595 436.714 481.168 437.312 480.592L439.968 483.472C438.346 485.328 435.978 486.256 432.864 486.256C430.922 486.256 429.205 485.883 427.712 485.136C426.218 484.368 425.066 483.312 424.256 481.968C423.445 480.624 423.04 479.099 423.04 477.392C423.04 475.707 423.434 474.192 424.224 472.848C425.034 471.483 426.133 470.427 427.52 469.68C428.928 468.912 430.496 468.528 432.224 468.528C433.909 468.528 435.434 468.891 436.8 469.616C438.165 470.341 439.232 471.387 440 472.752C440.789 474.096 441.184 475.664 441.184 477.456ZM432.256 472.304C431.125 472.304 430.176 472.624 429.408 473.264C428.64 473.904 428.17 474.779 428 475.888H436.48C436.309 474.8 435.84 473.936 435.072 473.296C434.304 472.635 433.365 472.304 432.256 472.304Z" fill="black"/>
<path d="M450.299 486.256C448.87 486.256 447.472 486.085 446.107 485.744C444.742 485.381 443.654 484.933 442.843 484.4L444.507 480.816C445.275 481.307 446.203 481.712 447.291 482.032C448.379 482.331 449.446 482.48 450.491 482.48C452.603 482.48 453.659 481.957 453.659 480.912C453.659 480.421 453.371 480.069 452.795 479.856C452.219 479.643 451.334 479.461 450.139 479.312C448.731 479.099 447.568 478.853 446.651 478.576C445.734 478.299 444.934 477.808 444.251 477.104C443.59 476.4 443.259 475.397 443.259 474.096C443.259 473.008 443.568 472.048 444.187 471.216C444.827 470.363 445.744 469.701 446.939 469.232C448.155 468.763 449.584 468.528 451.227 468.528C452.443 468.528 453.648 468.667 454.843 468.944C456.059 469.2 457.062 469.563 457.851 470.032L456.187 473.584C454.672 472.731 453.019 472.304 451.227 472.304C450.16 472.304 449.36 472.453 448.827 472.752C448.294 473.051 448.027 473.435 448.027 473.904C448.027 474.437 448.315 474.811 448.891 475.024C449.467 475.237 450.384 475.44 451.643 475.632C453.051 475.867 454.203 476.123 455.099 476.4C455.995 476.656 456.774 477.136 457.435 477.84C458.096 478.544 458.427 479.525 458.427 480.784C458.427 481.851 458.107 482.8 457.467 483.632C456.827 484.464 455.888 485.115 454.651 485.584C453.435 486.032 451.984 486.256 450.299 486.256Z" fill="black"/>
<path d="M469.699 486.256C467.886 486.256 466.254 485.883 464.803 485.136C463.374 484.368 462.254 483.312 461.443 481.968C460.632 480.624 460.227 479.099 460.227 477.392C460.227 475.685 460.632 474.16 461.443 472.816C462.254 471.472 463.374 470.427 464.803 469.68C466.254 468.912 467.886 468.528 469.699 468.528C471.512 468.528 473.134 468.912 474.563 469.68C475.992 470.427 477.112 471.472 477.923 472.816C478.734 474.16 479.139 475.685 479.139 477.392C479.139 479.099 478.734 480.624 477.923 481.968C477.112 483.312 475.992 484.368 474.563 485.136C473.134 485.883 471.512 486.256 469.699 486.256ZM469.699 482.16C470.979 482.16 472.024 481.733 472.835 480.88C473.667 480.005 474.083 478.843 474.083 477.392C474.083 475.941 473.667 474.789 472.835 473.936C472.024 473.061 470.979 472.624 469.699 472.624C468.419 472.624 467.363 473.061 466.531 473.936C465.699 474.789 465.283 475.941 465.283 477.392C465.283 478.843 465.699 480.005 466.531 480.88C467.363 481.733 468.419 482.16 469.699 482.16Z" fill="black"/>
<path d="M499.82 468.784V486H495.084V483.952C494.423 484.699 493.633 485.275 492.716 485.68C491.799 486.064 490.807 486.256 489.74 486.256C487.479 486.256 485.687 485.605 484.364 484.304C483.041 483.003 482.38 481.072 482.38 478.512V468.784H487.372V477.776C487.372 480.549 488.535 481.936 490.86 481.936C492.055 481.936 493.015 481.552 493.74 480.784C494.465 479.995 494.828 478.832 494.828 477.296V468.784H499.82Z" fill="black"/>
<path d="M509.213 471.056C509.81 470.224 510.61 469.595 511.613 469.168C512.637 468.741 513.81 468.528 515.133 468.528V473.136C514.578 473.093 514.205 473.072 514.013 473.072C512.583 473.072 511.463 473.477 510.653 474.288C509.842 475.077 509.437 476.272 509.437 477.872V486H504.445V468.784H509.213V471.056Z" fill="black"/>
<path d="M526.265 486.256C524.43 486.256 522.777 485.883 521.305 485.136C519.854 484.368 518.713 483.312 517.881 481.968C517.07 480.624 516.665 479.099 516.665 477.392C516.665 475.685 517.07 474.16 517.881 472.816C518.713 471.472 519.854 470.427 521.305 469.68C522.777 468.912 524.43 468.528 526.265 468.528C528.078 468.528 529.657 468.912 531.001 469.68C532.366 470.427 533.358 471.504 533.977 472.912L530.105 474.992C529.209 473.413 527.918 472.624 526.233 472.624C524.931 472.624 523.854 473.051 523.001 473.904C522.147 474.757 521.721 475.92 521.721 477.392C521.721 478.864 522.147 480.027 523.001 480.88C523.854 481.733 524.931 482.16 526.233 482.16C527.939 482.16 529.23 481.371 530.105 479.792L533.977 481.904C533.358 483.269 532.366 484.336 531.001 485.104C529.657 485.872 528.078 486.256 526.265 486.256Z" fill="black"/>
<path d="M553.496 477.456C553.496 477.52 553.464 477.968 553.4 478.8H540.376C540.611 479.867 541.165 480.709 542.04 481.328C542.915 481.947 544.003 482.256 545.304 482.256C546.2 482.256 546.989 482.128 547.672 481.872C548.376 481.595 549.027 481.168 549.624 480.592L552.28 483.472C550.659 485.328 548.291 486.256 545.176 486.256C543.235 486.256 541.517 485.883 540.024 485.136C538.531 484.368 537.379 483.312 536.568 481.968C535.757 480.624 535.352 479.099 535.352 477.392C535.352 475.707 535.747 474.192 536.536 472.848C537.347 471.483 538.445 470.427 539.832 469.68C541.24 468.912 542.808 468.528 544.536 468.528C546.221 468.528 547.747 468.891 549.112 469.616C550.477 470.341 551.544 471.387 552.312 472.752C553.101 474.096 553.496 475.664 553.496 477.456ZM544.568 472.304C543.437 472.304 542.488 472.624 541.72 473.264C540.952 473.904 540.483 474.779 540.312 475.888H548.792C548.621 474.8 548.152 473.936 547.384 473.296C546.616 472.635 545.677 472.304 544.568 472.304Z" fill="black"/>
<rect x="700" width="250" height="950" fill="#C594C5"/>
<path d="M745.799 488.2H735.399L733.415 493H728.103L738.087 470.6H743.207L753.223 493H747.783L745.799 488.2ZM744.167 484.264L740.615 475.688L737.063 484.264H744.167Z" fill="black"/>
<path d="M765.371 475.528C766.971 475.528 768.421 475.901 769.723 476.648C771.045 477.373 772.08 478.408 772.827 479.752C773.573 481.075 773.947 482.621 773.947 484.392C773.947 486.163 773.573 487.72 772.827 489.064C772.08 490.387 771.045 491.421 769.723 492.168C768.421 492.893 766.971 493.256 765.371 493.256C763.173 493.256 761.445 492.563 760.187 491.176V499.208H755.195V475.784H759.963V477.768C761.2 476.275 763.003 475.528 765.371 475.528ZM764.507 489.16C765.787 489.16 766.832 488.733 767.643 487.88C768.475 487.005 768.891 485.843 768.891 484.392C768.891 482.941 768.475 481.789 767.643 480.936C766.832 480.061 765.787 479.624 764.507 479.624C763.227 479.624 762.171 480.061 761.339 480.936C760.528 481.789 760.123 482.941 760.123 484.392C760.123 485.843 760.528 487.005 761.339 487.88C762.171 488.733 763.227 489.16 764.507 489.16Z" fill="black"/>
<path d="M787.464 475.528C789.064 475.528 790.515 475.901 791.816 476.648C793.139 477.373 794.174 478.408 794.92 479.752C795.667 481.075 796.04 482.621 796.04 484.392C796.04 486.163 795.667 487.72 794.92 489.064C794.174 490.387 793.139 491.421 791.816 492.168C790.515 492.893 789.064 493.256 787.464 493.256C785.267 493.256 783.539 492.563 782.28 491.176V499.208H777.288V475.784H782.056V477.768C783.294 476.275 785.096 475.528 787.464 475.528ZM786.6 489.16C787.88 489.16 788.926 488.733 789.736 487.88C790.568 487.005 790.984 485.843 790.984 484.392C790.984 482.941 790.568 481.789 789.736 480.936C788.926 480.061 787.88 479.624 786.6 479.624C785.32 479.624 784.264 480.061 783.432 480.936C782.622 481.789 782.216 482.941 782.216 484.392C782.216 485.843 782.622 487.005 783.432 487.88C784.264 488.733 785.32 489.16 786.6 489.16Z" fill="black"/>
<path d="M799.382 469.256H804.374V493H799.382V469.256Z" fill="black"/>
<path d="M809.007 475.784H813.999V493H809.007V475.784ZM811.503 473.384C810.586 473.384 809.839 473.117 809.263 472.584C808.687 472.051 808.399 471.389 808.399 470.6C808.399 469.811 808.687 469.149 809.263 468.616C809.839 468.083 810.586 467.816 811.503 467.816C812.42 467.816 813.167 468.072 813.743 468.584C814.319 469.096 814.607 469.736 814.607 470.504C814.607 471.336 814.319 472.029 813.743 472.584C813.167 473.117 812.42 473.384 811.503 473.384Z" fill="black"/>
<path d="M826.952 493.256C825.117 493.256 823.464 492.883 821.992 492.136C820.541 491.368 819.4 490.312 818.568 488.968C817.757 487.624 817.352 486.099 817.352 484.392C817.352 482.685 817.757 481.16 818.568 479.816C819.4 478.472 820.541 477.427 821.992 476.68C823.464 475.912 825.117 475.528 826.952 475.528C828.765 475.528 830.344 475.912 831.688 476.68C833.053 477.427 834.045 478.504 834.664 479.912L830.792 481.992C829.896 480.413 828.605 479.624 826.92 479.624C825.619 479.624 824.541 480.051 823.688 480.904C822.835 481.757 822.408 482.92 822.408 484.392C822.408 485.864 822.835 487.027 823.688 487.88C824.541 488.733 825.619 489.16 826.92 489.16C828.627 489.16 829.918 488.371 830.792 486.792L834.664 488.904C834.045 490.269 833.053 491.336 831.688 492.104C830.344 492.872 828.765 493.256 826.952 493.256Z" fill="black"/>
<path d="M844.482 475.528C847.149 475.528 849.197 476.168 850.626 477.448C852.056 478.707 852.77 480.616 852.77 483.176V493H848.098V490.856C847.16 492.456 845.41 493.256 842.85 493.256C841.528 493.256 840.376 493.032 839.394 492.584C838.434 492.136 837.698 491.517 837.186 490.728C836.674 489.939 836.418 489.043 836.418 488.04C836.418 486.44 837.016 485.181 838.21 484.264C839.426 483.347 841.293 482.888 843.81 482.888H847.778C847.778 481.8 847.448 480.968 846.786 480.392C846.125 479.795 845.133 479.496 843.81 479.496C842.893 479.496 841.986 479.645 841.09 479.944C840.216 480.221 839.469 480.605 838.85 481.096L837.058 477.608C837.997 476.947 839.117 476.435 840.418 476.072C841.741 475.709 843.096 475.528 844.482 475.528ZM844.098 489.896C844.952 489.896 845.709 489.704 846.37 489.32C847.032 488.915 847.501 488.328 847.778 487.56V485.8H844.354C842.306 485.8 841.282 486.472 841.282 487.816C841.282 488.456 841.528 488.968 842.018 489.352C842.53 489.715 843.224 489.896 844.098 489.896Z" fill="black"/>
<path d="M868.392 492.168C867.902 492.531 867.294 492.808 866.568 493C865.864 493.171 865.118 493.256 864.328 493.256C862.28 493.256 860.691 492.733 859.56 491.688C858.451 490.643 857.896 489.107 857.896 487.08V480.008H855.24V476.168H857.896V471.976H862.888V476.168H867.176V480.008H862.888V487.016C862.888 487.741 863.07 488.307 863.432 488.712C863.816 489.096 864.35 489.288 865.032 489.288C865.822 489.288 866.494 489.075 867.048 488.648L868.392 492.168Z" fill="black"/>
<path d="M871.195 475.784H876.187V493H871.195V475.784ZM873.691 473.384C872.773 473.384 872.027 473.117 871.451 472.584C870.875 472.051 870.587 471.389 870.587 470.6C870.587 469.811 870.875 469.149 871.451 468.616C872.027 468.083 872.773 467.816 873.691 467.816C874.608 467.816 875.355 468.072 875.931 468.584C876.507 469.096 876.795 469.736 876.795 470.504C876.795 471.336 876.507 472.029 875.931 472.584C875.355 473.117 874.608 473.384 873.691 473.384Z" fill="black"/>
<path d="M889.012 493.256C887.198 493.256 885.566 492.883 884.116 492.136C882.686 491.368 881.566 490.312 880.756 488.968C879.945 487.624 879.54 486.099 879.54 484.392C879.54 482.685 879.945 481.16 880.756 479.816C881.566 478.472 882.686 477.427 884.116 476.68C885.566 475.912 887.198 475.528 889.012 475.528C890.825 475.528 892.446 475.912 893.876 476.68C895.305 477.427 896.425 478.472 897.236 479.816C898.046 481.16 898.452 482.685 898.452 484.392C898.452 486.099 898.046 487.624 897.236 488.968C896.425 490.312 895.305 491.368 893.876 492.136C892.446 492.883 890.825 493.256 889.012 493.256ZM889.012 489.16C890.292 489.16 891.337 488.733 892.148 487.88C892.98 487.005 893.396 485.843 893.396 484.392C893.396 482.941 892.98 481.789 892.148 480.936C891.337 480.061 890.292 479.624 889.012 479.624C887.732 479.624 886.676 480.061 885.844 480.936C885.012 481.789 884.596 482.941 884.596 484.392C884.596 485.843 885.012 487.005 885.844 487.88C886.676 488.733 887.732 489.16 889.012 489.16Z" fill="black"/>
<path d="M912.252 475.528C914.386 475.528 916.103 476.168 917.404 477.448C918.727 478.728 919.388 480.627 919.388 483.144V493H914.396V483.912C914.396 482.547 914.098 481.533 913.5 480.872C912.903 480.189 912.039 479.848 910.908 479.848C909.65 479.848 908.647 480.243 907.9 481.032C907.154 481.8 906.78 482.952 906.78 484.488V493H901.788V475.784H906.556V477.8C907.218 477.075 908.039 476.52 909.02 476.136C910.002 475.731 911.079 475.528 912.252 475.528Z" fill="black"/>
<rect x="1052" y="2" width="246" height="946" fill="white" stroke="#C594C5" stroke-width="4"/>
<path d="M1115.41 486L1111.09 479.76H1110.84H1106.32V486H1101.14V463.6H1110.84C1112.82 463.6 1114.54 463.931 1115.99 464.592C1117.46 465.253 1118.59 466.192 1119.38 467.408C1120.17 468.624 1120.56 470.064 1120.56 471.728C1120.56 473.392 1120.16 474.832 1119.35 476.048C1118.56 477.243 1117.43 478.16 1115.96 478.8L1120.98 486H1115.41ZM1115.32 471.728C1115.32 470.469 1114.91 469.509 1114.1 468.848C1113.29 468.165 1112.11 467.824 1110.55 467.824H1106.32V475.632H1110.55C1112.11 475.632 1113.29 475.291 1114.1 474.608C1114.91 473.925 1115.32 472.965 1115.32 471.728Z" fill="black"/>
<path d="M1141.18 477.456C1141.18 477.52 1141.15 477.968 1141.09 478.8H1128.06C1128.3 479.867 1128.85 480.709 1129.73 481.328C1130.6 481.947 1131.69 482.256 1132.99 482.256C1133.89 482.256 1134.68 482.128 1135.36 481.872C1136.06 481.595 1136.71 481.168 1137.31 480.592L1139.97 483.472C1138.35 485.328 1135.98 486.256 1132.86 486.256C1130.92 486.256 1129.2 485.883 1127.71 485.136C1126.22 484.368 1125.07 483.312 1124.26 481.968C1123.44 480.624 1123.04 479.099 1123.04 477.392C1123.04 475.707 1123.43 474.192 1124.22 472.848C1125.03 471.483 1126.13 470.427 1127.52 469.68C1128.93 468.912 1130.5 468.528 1132.22 468.528C1133.91 468.528 1135.43 468.891 1136.8 469.616C1138.16 470.341 1139.23 471.387 1140 472.752C1140.79 474.096 1141.18 475.664 1141.18 477.456ZM1132.26 472.304C1131.12 472.304 1130.18 472.624 1129.41 473.264C1128.64 473.904 1128.17 474.779 1128 475.888H1136.48C1136.31 474.8 1135.84 473.936 1135.07 473.296C1134.3 472.635 1133.36 472.304 1132.26 472.304Z" fill="black"/>
<path d="M1150.3 486.256C1148.87 486.256 1147.47 486.085 1146.11 485.744C1144.74 485.381 1143.65 484.933 1142.84 484.4L1144.51 480.816C1145.28 481.307 1146.2 481.712 1147.29 482.032C1148.38 482.331 1149.45 482.48 1150.49 482.48C1152.6 482.48 1153.66 481.957 1153.66 480.912C1153.66 480.421 1153.37 480.069 1152.8 479.856C1152.22 479.643 1151.33 479.461 1150.14 479.312C1148.73 479.099 1147.57 478.853 1146.65 478.576C1145.73 478.299 1144.93 477.808 1144.25 477.104C1143.59 476.4 1143.26 475.397 1143.26 474.096C1143.26 473.008 1143.57 472.048 1144.19 471.216C1144.83 470.363 1145.74 469.701 1146.94 469.232C1148.16 468.763 1149.58 468.528 1151.23 468.528C1152.44 468.528 1153.65 468.667 1154.84 468.944C1156.06 469.2 1157.06 469.563 1157.85 470.032L1156.19 473.584C1154.67 472.731 1153.02 472.304 1151.23 472.304C1150.16 472.304 1149.36 472.453 1148.83 472.752C1148.29 473.051 1148.03 473.435 1148.03 473.904C1148.03 474.437 1148.32 474.811 1148.89 475.024C1149.47 475.237 1150.38 475.44 1151.64 475.632C1153.05 475.867 1154.2 476.123 1155.1 476.4C1156 476.656 1156.77 477.136 1157.44 477.84C1158.1 478.544 1158.43 479.525 1158.43 480.784C1158.43 481.851 1158.11 482.8 1157.47 483.632C1156.83 484.464 1155.89 485.115 1154.65 485.584C1153.44 486.032 1151.98 486.256 1150.3 486.256Z" fill="black"/>
<path d="M1169.7 486.256C1167.89 486.256 1166.25 485.883 1164.8 485.136C1163.37 484.368 1162.25 483.312 1161.44 481.968C1160.63 480.624 1160.23 479.099 1160.23 477.392C1160.23 475.685 1160.63 474.16 1161.44 472.816C1162.25 471.472 1163.37 470.427 1164.8 469.68C1166.25 468.912 1167.89 468.528 1169.7 468.528C1171.51 468.528 1173.13 468.912 1174.56 469.68C1175.99 470.427 1177.11 471.472 1177.92 472.816C1178.73 474.16 1179.14 475.685 1179.14 477.392C1179.14 479.099 1178.73 480.624 1177.92 481.968C1177.11 483.312 1175.99 484.368 1174.56 485.136C1173.13 485.883 1171.51 486.256 1169.7 486.256ZM1169.7 482.16C1170.98 482.16 1172.02 481.733 1172.84 480.88C1173.67 480.005 1174.08 478.843 1174.08 477.392C1174.08 475.941 1173.67 474.789 1172.84 473.936C1172.02 473.061 1170.98 472.624 1169.7 472.624C1168.42 472.624 1167.36 473.061 1166.53 473.936C1165.7 474.789 1165.28 475.941 1165.28 477.392C1165.28 478.843 1165.7 480.005 1166.53 480.88C1167.36 481.733 1168.42 482.16 1169.7 482.16Z" fill="black"/>
<path d="M1199.82 468.784V486H1195.08V483.952C1194.42 484.699 1193.63 485.275 1192.72 485.68C1191.8 486.064 1190.81 486.256 1189.74 486.256C1187.48 486.256 1185.69 485.605 1184.36 484.304C1183.04 483.003 1182.38 481.072 1182.38 478.512V468.784H1187.37V477.776C1187.37 480.549 1188.53 481.936 1190.86 481.936C1192.05 481.936 1193.01 481.552 1193.74 480.784C1194.47 479.995 1194.83 478.832 1194.83 477.296V468.784H1199.82Z" fill="black"/>
<path d="M1209.21 471.056C1209.81 470.224 1210.61 469.595 1211.61 469.168C1212.64 468.741 1213.81 468.528 1215.13 468.528V473.136C1214.58 473.093 1214.2 473.072 1214.01 473.072C1212.58 473.072 1211.46 473.477 1210.65 474.288C1209.84 475.077 1209.44 476.272 1209.44 477.872V486H1204.44V468.784H1209.21V471.056Z" fill="black"/>
<path d="M1226.26 486.256C1224.43 486.256 1222.78 485.883 1221.3 485.136C1219.85 484.368 1218.71 483.312 1217.88 481.968C1217.07 480.624 1216.66 479.099 1216.66 477.392C1216.66 475.685 1217.07 474.16 1217.88 472.816C1218.71 471.472 1219.85 470.427 1221.3 469.68C1222.78 468.912 1224.43 468.528 1226.26 468.528C1228.08 468.528 1229.66 468.912 1231 469.68C1232.37 470.427 1233.36 471.504 1233.98 472.912L1230.1 474.992C1229.21 473.413 1227.92 472.624 1226.23 472.624C1224.93 472.624 1223.85 473.051 1223 473.904C1222.15 474.757 1221.72 475.92 1221.72 477.392C1221.72 478.864 1222.15 480.027 1223 480.88C1223.85 481.733 1224.93 482.16 1226.23 482.16C1227.94 482.16 1229.23 481.371 1230.1 479.792L1233.98 481.904C1233.36 483.269 1232.37 484.336 1231 485.104C1229.66 485.872 1228.08 486.256 1226.26 486.256Z" fill="black"/>
<path d="M1253.5 477.456C1253.5 477.52 1253.46 477.968 1253.4 478.8H1240.38C1240.61 479.867 1241.17 480.709 1242.04 481.328C1242.91 481.947 1244 482.256 1245.3 482.256C1246.2 482.256 1246.99 482.128 1247.67 481.872C1248.38 481.595 1249.03 481.168 1249.62 480.592L1252.28 483.472C1250.66 485.328 1248.29 486.256 1245.18 486.256C1243.23 486.256 1241.52 485.883 1240.02 485.136C1238.53 484.368 1237.38 483.312 1236.57 481.968C1235.76 480.624 1235.35 479.099 1235.35 477.392C1235.35 475.707 1235.75 474.192 1236.54 472.848C1237.35 471.483 1238.45 470.427 1239.83 469.68C1241.24 468.912 1242.81 468.528 1244.54 468.528C1246.22 468.528 1247.75 468.891 1249.11 469.616C1250.48 470.341 1251.54 471.387 1252.31 472.752C1253.1 474.096 1253.5 475.664 1253.5 477.456ZM1244.57 472.304C1243.44 472.304 1242.49 472.624 1241.72 473.264C1240.95 473.904 1240.48 474.779 1240.31 475.888H1248.79C1248.62 474.8 1248.15 473.936 1247.38 473.296C1246.62 472.635 1245.68 472.304 1244.57 472.304Z" fill="black"/>
<rect width="250" height="250" fill="#DCBFDC"/>
<path d="M70.0686 148L65.7486 141.76H65.4926H60.9806V148H55.7966V125.6H65.4926C67.4766 125.6 69.194 125.931 70.6446 126.592C72.1166 127.253 73.2473 128.192 74.0366 129.408C74.826 130.624 75.2206 132.064 75.2206 133.728C75.2206 135.392 74.8153 136.832 74.0046 138.048C73.2153 139.243 72.0846 140.16 70.6126 140.8L75.6366 148H70.0686ZM69.9726 133.728C69.9726 132.469 69.5673 131.509 68.7566 130.848C67.946 130.165 66.762 129.824 65.2046 129.824H60.9806V137.632H65.2046C66.762 137.632 67.946 137.291 68.7566 136.608C69.5673 135.925 69.9726 134.965 69.9726 133.728Z" fill="black"/>
<path d="M95.8399 139.456C95.8399 139.52 95.8079 139.968 95.7439 140.8H82.7199C82.9545 141.867 83.5092 142.709 84.3839 143.328C85.2585 143.947 86.3465 144.256 87.6479 144.256C88.5439 144.256 89.3332 144.128 90.0159 143.872C90.7199 143.595 91.3705 143.168 91.9679 142.592L94.6239 145.472C93.0026 147.328 90.6345 148.256 87.5199 148.256C85.5785 148.256 83.8612 147.883 82.3679 147.136C80.8745 146.368 79.7225 145.312 78.9119 143.968C78.1012 142.624 77.6959 141.099 77.6959 139.392C77.6959 137.707 78.0905 136.192 78.8799 134.848C79.6905 133.483 80.7892 132.427 82.1759 131.68C83.5839 130.912 85.1519 130.528 86.8799 130.528C88.5652 130.528 90.0905 130.891 91.4559 131.616C92.8212 132.341 93.8879 133.387 94.6559 134.752C95.4452 136.096 95.8399 137.664 95.8399 139.456ZM86.9119 134.304C85.7812 134.304 84.8319 134.624 84.0639 135.264C83.2959 135.904 82.8265 136.779 82.6559 137.888H91.1359C90.9652 136.8 90.4959 135.936 89.7279 135.296C88.9599 134.635 88.0212 134.304 86.9119 134.304Z" fill="black"/>
<path d="M99.1634 124.256H104.155V148H99.1634V124.256Z" fill="black"/>
<path d="M115.732 130.528C118.399 130.528 120.447 131.168 121.876 132.448C123.306 133.707 124.02 135.616 124.02 138.176V148H119.348V145.856C118.41 147.456 116.66 148.256 114.1 148.256C112.778 148.256 111.626 148.032 110.644 147.584C109.684 147.136 108.948 146.517 108.436 145.728C107.924 144.939 107.668 144.043 107.668 143.04C107.668 141.44 108.266 140.181 109.46 139.264C110.676 138.347 112.543 137.888 115.06 137.888H119.028C119.028 136.8 118.698 135.968 118.036 135.392C117.375 134.795 116.383 134.496 115.06 134.496C114.143 134.496 113.236 134.645 112.34 134.944C111.466 135.221 110.719 135.605 110.1 136.096L108.308 132.608C109.247 131.947 110.367 131.435 111.668 131.072C112.991 130.709 114.346 130.528 115.732 130.528ZM115.348 144.896C116.202 144.896 116.959 144.704 117.62 144.32C118.282 143.915 118.751 143.328 119.028 142.56V140.8H115.604C113.556 140.8 112.532 141.472 112.532 142.816C112.532 143.456 112.778 143.968 113.268 144.352C113.78 144.715 114.474 144.896 115.348 144.896Z" fill="black"/>
<path d="M139.642 147.168C139.152 147.531 138.544 147.808 137.818 148C137.114 148.171 136.368 148.256 135.578 148.256C133.53 148.256 131.941 147.733 130.81 146.688C129.701 145.643 129.146 144.107 129.146 142.08V135.008H126.49V131.168H129.146V126.976H134.138V131.168H138.426V135.008H134.138V142.016C134.138 142.741 134.32 143.307 134.682 143.712C135.066 144.096 135.6 144.288 136.282 144.288C137.072 144.288 137.744 144.075 138.298 143.648L139.642 147.168Z" fill="black"/>
<path d="M142.445 130.784H147.437V148H142.445V130.784ZM144.941 128.384C144.023 128.384 143.277 128.117 142.701 127.584C142.125 127.051 141.837 126.389 141.837 125.6C141.837 124.811 142.125 124.149 142.701 123.616C143.277 123.083 144.023 122.816 144.941 122.816C145.858 122.816 146.605 123.072 147.181 123.584C147.757 124.096 148.045 124.736 148.045 125.504C148.045 126.336 147.757 127.029 147.181 127.584C146.605 128.117 145.858 128.384 144.941 128.384Z" fill="black"/>
<path d="M160.262 148.256C158.448 148.256 156.816 147.883 155.366 147.136C153.936 146.368 152.816 145.312 152.006 143.968C151.195 142.624 150.79 141.099 150.79 139.392C150.79 137.685 151.195 136.16 152.006 134.816C152.816 133.472 153.936 132.427 155.366 131.68C156.816 130.912 158.448 130.528 160.262 130.528C162.075 130.528 163.696 130.912 165.126 131.68C166.555 132.427 167.675 133.472 168.486 134.816C169.296 136.16 169.702 137.685 169.702 139.392C169.702 141.099 169.296 142.624 168.486 143.968C167.675 145.312 166.555 146.368 165.126 147.136C163.696 147.883 162.075 148.256 160.262 148.256ZM160.262 144.16C161.542 144.16 162.587 143.733 163.398 142.88C164.23 142.005 164.646 140.843 164.646 139.392C164.646 137.941 164.23 136.789 163.398 135.936C162.587 135.061 161.542 134.624 160.262 134.624C158.982 134.624 157.926 135.061 157.094 135.936C156.262 136.789 155.846 137.941 155.846 139.392C155.846 140.843 156.262 142.005 157.094 142.88C157.926 143.733 158.982 144.16 160.262 144.16Z" fill="black"/>
<path d="M183.502 130.528C185.636 130.528 187.353 131.168 188.654 132.448C189.977 133.728 190.638 135.627 190.638 138.144V148H185.646V138.912C185.646 137.547 185.348 136.533 184.75 135.872C184.153 135.189 183.289 134.848 182.158 134.848C180.9 134.848 179.897 135.243 179.15 136.032C178.404 136.8 178.03 137.952 178.03 139.488V148H173.038V130.784H177.806V132.8C178.468 132.075 179.289 131.52 180.27 131.136C181.252 130.731 182.329 130.528 183.502 130.528Z" fill="black"/>
<rect x="1400" y="700" width="250" height="250" fill="#DCBFDC"/>
<path d="M1470.07 848L1465.75 841.76H1465.49H1460.98V848H1455.8V825.6H1465.49C1467.48 825.6 1469.19 825.931 1470.64 826.592C1472.12 827.254 1473.25 828.192 1474.04 829.408C1474.83 830.624 1475.22 832.064 1475.22 833.728C1475.22 835.392 1474.82 836.832 1474 838.048C1473.22 839.243 1472.08 840.16 1470.61 840.8L1475.64 848H1470.07ZM1469.97 833.728C1469.97 832.47 1469.57 831.51 1468.76 830.848C1467.95 830.166 1466.76 829.824 1465.2 829.824H1460.98V837.632H1465.2C1466.76 837.632 1467.95 837.291 1468.76 836.608C1469.57 835.926 1469.97 834.966 1469.97 833.728Z" fill="black"/>
<path d="M1495.84 839.456C1495.84 839.52 1495.81 839.968 1495.74 840.8H1482.72C1482.95 841.867 1483.51 842.71 1484.38 843.328C1485.26 843.947 1486.35 844.256 1487.65 844.256C1488.54 844.256 1489.33 844.128 1490.02 843.872C1490.72 843.595 1491.37 843.168 1491.97 842.592L1494.62 845.472C1493 847.328 1490.63 848.256 1487.52 848.256C1485.58 848.256 1483.86 847.883 1482.37 847.136C1480.87 846.368 1479.72 845.312 1478.91 843.968C1478.1 842.624 1477.7 841.099 1477.7 839.392C1477.7 837.707 1478.09 836.192 1478.88 834.848C1479.69 833.483 1480.79 832.427 1482.18 831.68C1483.58 830.912 1485.15 830.528 1486.88 830.528C1488.57 830.528 1490.09 830.891 1491.46 831.616C1492.82 832.342 1493.89 833.387 1494.66 834.752C1495.45 836.096 1495.84 837.664 1495.84 839.456ZM1486.91 834.304C1485.78 834.304 1484.83 834.624 1484.06 835.264C1483.3 835.904 1482.83 836.779 1482.66 837.888H1491.14C1490.97 836.8 1490.5 835.936 1489.73 835.296C1488.96 834.635 1488.02 834.304 1486.91 834.304Z" fill="black"/>
<path d="M1499.16 824.256H1504.16V848H1499.16V824.256Z" fill="black"/>
<path d="M1515.73 830.528C1518.4 830.528 1520.45 831.168 1521.88 832.448C1523.31 833.707 1524.02 835.616 1524.02 838.176V848H1519.35V845.856C1518.41 847.456 1516.66 848.256 1514.1 848.256C1512.78 848.256 1511.63 848.032 1510.64 847.584C1509.68 847.136 1508.95 846.518 1508.44 845.728C1507.92 844.939 1507.67 844.043 1507.67 843.04C1507.67 841.44 1508.27 840.182 1509.46 839.264C1510.68 838.347 1512.54 837.888 1515.06 837.888H1519.03C1519.03 836.8 1518.7 835.968 1518.04 835.392C1517.38 834.795 1516.38 834.496 1515.06 834.496C1514.14 834.496 1513.24 834.646 1512.34 834.944C1511.47 835.222 1510.72 835.606 1510.1 836.096L1508.31 832.608C1509.25 831.947 1510.37 831.435 1511.67 831.072C1512.99 830.71 1514.35 830.528 1515.73 830.528ZM1515.35 844.896C1516.2 844.896 1516.96 844.704 1517.62 844.32C1518.28 843.915 1518.75 843.328 1519.03 842.56V840.8H1515.6C1513.56 840.8 1512.53 841.472 1512.53 842.816C1512.53 843.456 1512.78 843.968 1513.27 844.352C1513.78 844.715 1514.47 844.896 1515.35 844.896Z" fill="black"/>
<path d="M1539.64 847.168C1539.15 847.531 1538.54 847.808 1537.82 848C1537.11 848.171 1536.37 848.256 1535.58 848.256C1533.53 848.256 1531.94 847.734 1530.81 846.688C1529.7 845.643 1529.15 844.107 1529.15 842.08V835.008H1526.49V831.168H1529.15V826.976H1534.14V831.168H1538.43V835.008H1534.14V842.016C1534.14 842.742 1534.32 843.307 1534.68 843.712C1535.07 844.096 1535.6 844.288 1536.28 844.288C1537.07 844.288 1537.74 844.075 1538.3 843.648L1539.64 847.168Z" fill="black"/>
<path d="M1542.44 830.784H1547.44V848H1542.44V830.784ZM1544.94 828.384C1544.02 828.384 1543.28 828.118 1542.7 827.584C1542.12 827.051 1541.84 826.39 1541.84 825.6C1541.84 824.811 1542.12 824.15 1542.7 823.616C1543.28 823.083 1544.02 822.816 1544.94 822.816C1545.86 822.816 1546.6 823.072 1547.18 823.584C1547.76 824.096 1548.04 824.736 1548.04 825.504C1548.04 826.336 1547.76 827.03 1547.18 827.584C1546.6 828.118 1545.86 828.384 1544.94 828.384Z" fill="black"/>
<path d="M1560.26 848.256C1558.45 848.256 1556.82 847.883 1555.37 847.136C1553.94 846.368 1552.82 845.312 1552.01 843.968C1551.19 842.624 1550.79 841.099 1550.79 839.392C1550.79 837.686 1551.19 836.16 1552.01 834.816C1552.82 833.472 1553.94 832.427 1555.37 831.68C1556.82 830.912 1558.45 830.528 1560.26 830.528C1562.07 830.528 1563.7 830.912 1565.13 831.68C1566.55 832.427 1567.67 833.472 1568.49 834.816C1569.3 836.16 1569.7 837.686 1569.7 839.392C1569.7 841.099 1569.3 842.624 1568.49 843.968C1567.67 845.312 1566.55 846.368 1565.13 847.136C1563.7 847.883 1562.07 848.256 1560.26 848.256ZM1560.26 844.16C1561.54 844.16 1562.59 843.734 1563.4 842.88C1564.23 842.006 1564.65 840.843 1564.65 839.392C1564.65 837.942 1564.23 836.79 1563.4 835.936C1562.59 835.062 1561.54 834.624 1560.26 834.624C1558.98 834.624 1557.93 835.062 1557.09 835.936C1556.26 836.79 1555.85 837.942 1555.85 839.392C1555.85 840.843 1556.26 842.006 1557.09 842.88C1557.93 843.734 1558.98 844.16 1560.26 844.16Z" fill="black"/>
<path d="M1583.5 830.528C1585.64 830.528 1587.35 831.168 1588.65 832.448C1589.98 833.728 1590.64 835.627 1590.64 838.144V848H1585.65V838.912C1585.65 837.547 1585.35 836.534 1584.75 835.872C1584.15 835.19 1583.29 834.848 1582.16 834.848C1580.9 834.848 1579.9 835.243 1579.15 836.032C1578.4 836.8 1578.03 837.952 1578.03 839.488V848H1573.04V830.784H1577.81V832.8C1578.47 832.075 1579.29 831.52 1580.27 831.136C1581.25 830.731 1582.33 830.528 1583.5 830.528Z" fill="black"/>
<rect x="1400" y="350" width="250" height="250" fill="#DCBFDC"/>
<path d="M1470.07 498L1465.75 491.76H1465.49H1460.98V498H1455.8V475.6H1465.49C1467.48 475.6 1469.19 475.931 1470.64 476.592C1472.12 477.253 1473.25 478.192 1474.04 479.408C1474.83 480.624 1475.22 482.064 1475.22 483.728C1475.22 485.392 1474.82 486.832 1474 488.048C1473.22 489.243 1472.08 490.16 1470.61 490.8L1475.64 498H1470.07ZM1469.97 483.728C1469.97 482.469 1469.57 481.509 1468.76 480.848C1467.95 480.165 1466.76 479.824 1465.2 479.824H1460.98V487.632H1465.2C1466.76 487.632 1467.95 487.291 1468.76 486.608C1469.57 485.925 1469.97 484.965 1469.97 483.728Z" fill="black"/>
<path d="M1495.84 489.456C1495.84 489.52 1495.81 489.968 1495.74 490.8H1482.72C1482.95 491.867 1483.51 492.709 1484.38 493.328C1485.26 493.947 1486.35 494.256 1487.65 494.256C1488.54 494.256 1489.33 494.128 1490.02 493.872C1490.72 493.595 1491.37 493.168 1491.97 492.592L1494.62 495.472C1493 497.328 1490.63 498.256 1487.52 498.256C1485.58 498.256 1483.86 497.883 1482.37 497.136C1480.87 496.368 1479.72 495.312 1478.91 493.968C1478.1 492.624 1477.7 491.099 1477.7 489.392C1477.7 487.707 1478.09 486.192 1478.88 484.848C1479.69 483.483 1480.79 482.427 1482.18 481.68C1483.58 480.912 1485.15 480.528 1486.88 480.528C1488.57 480.528 1490.09 480.891 1491.46 481.616C1492.82 482.341 1493.89 483.387 1494.66 484.752C1495.45 486.096 1495.84 487.664 1495.84 489.456ZM1486.91 484.304C1485.78 484.304 1484.83 484.624 1484.06 485.264C1483.3 485.904 1482.83 486.779 1482.66 487.888H1491.14C1490.97 486.8 1490.5 485.936 1489.73 485.296C1488.96 484.635 1488.02 484.304 1486.91 484.304Z" fill="black"/>
<path d="M1499.16 474.256H1504.16V498H1499.16V474.256Z" fill="black"/>
<path d="M1515.73 480.528C1518.4 480.528 1520.45 481.168 1521.88 482.448C1523.31 483.707 1524.02 485.616 1524.02 488.176V498H1519.35V495.856C1518.41 497.456 1516.66 498.256 1514.1 498.256C1512.78 498.256 1511.63 498.032 1510.64 497.584C1509.68 497.136 1508.95 496.517 1508.44 495.728C1507.92 494.939 1507.67 494.043 1507.67 493.04C1507.67 491.44 1508.27 490.181 1509.46 489.264C1510.68 488.347 1512.54 487.888 1515.06 487.888H1519.03C1519.03 486.8 1518.7 485.968 1518.04 485.392C1517.38 484.795 1516.38 484.496 1515.06 484.496C1514.14 484.496 1513.24 484.645 1512.34 484.944C1511.47 485.221 1510.72 485.605 1510.1 486.096L1508.31 482.608C1509.25 481.947 1510.37 481.435 1511.67 481.072C1512.99 480.709 1514.35 480.528 1515.73 480.528ZM1515.35 494.896C1516.2 494.896 1516.96 494.704 1517.62 494.32C1518.28 493.915 1518.75 493.328 1519.03 492.56V490.8H1515.6C1513.56 490.8 1512.53 491.472 1512.53 492.816C1512.53 493.456 1512.78 493.968 1513.27 494.352C1513.78 494.715 1514.47 494.896 1515.35 494.896Z" fill="black"/>
<path d="M1539.64 497.168C1539.15 497.531 1538.54 497.808 1537.82 498C1537.11 498.171 1536.37 498.256 1535.58 498.256C1533.53 498.256 1531.94 497.733 1530.81 496.688C1529.7 495.643 1529.15 494.107 1529.15 492.08V485.008H1526.49V481.168H1529.15V476.976H1534.14V481.168H1538.43V485.008H1534.14V492.016C1534.14 492.741 1534.32 493.307 1534.68 493.712C1535.07 494.096 1535.6 494.288 1536.28 494.288C1537.07 494.288 1537.74 494.075 1538.3 493.648L1539.64 497.168Z" fill="black"/>
<path d="M1542.44 480.784H1547.44V498H1542.44V480.784ZM1544.94 478.384C1544.02 478.384 1543.28 478.117 1542.7 477.584C1542.12 477.051 1541.84 476.389 1541.84 475.6C1541.84 474.811 1542.12 474.149 1542.7 473.616C1543.28 473.083 1544.02 472.816 1544.94 472.816C1545.86 472.816 1546.6 473.072 1547.18 473.584C1547.76 474.096 1548.04 474.736 1548.04 475.504C1548.04 476.336 1547.76 477.029 1547.18 477.584C1546.6 478.117 1545.86 478.384 1544.94 478.384Z" fill="black"/>
<path d="M1560.26 498.256C1558.45 498.256 1556.82 497.883 1555.37 497.136C1553.94 496.368 1552.82 495.312 1552.01 493.968C1551.19 492.624 1550.79 491.099 1550.79 489.392C1550.79 487.685 1551.19 486.16 1552.01 484.816C1552.82 483.472 1553.94 482.427 1555.37 481.68C1556.82 480.912 1558.45 480.528 1560.26 480.528C1562.07 480.528 1563.7 480.912 1565.13 481.68C1566.55 482.427 1567.67 483.472 1568.49 484.816C1569.3 486.16 1569.7 487.685 1569.7 489.392C1569.7 491.099 1569.3 492.624 1568.49 493.968C1567.67 495.312 1566.55 496.368 1565.13 497.136C1563.7 497.883 1562.07 498.256 1560.26 498.256ZM1560.26 494.16C1561.54 494.16 1562.59 493.733 1563.4 492.88C1564.23 492.005 1564.65 490.843 1564.65 489.392C1564.65 487.941 1564.23 486.789 1563.4 485.936C1562.59 485.061 1561.54 484.624 1560.26 484.624C1558.98 484.624 1557.93 485.061 1557.09 485.936C1556.26 486.789 1555.85 487.941 1555.85 489.392C1555.85 490.843 1556.26 492.005 1557.09 492.88C1557.93 493.733 1558.98 494.16 1560.26 494.16Z" fill="black"/>
<path d="M1583.5 480.528C1585.64 480.528 1587.35 481.168 1588.65 482.448C1589.98 483.728 1590.64 485.627 1590.64 488.144V498H1585.65V488.912C1585.65 487.547 1585.35 486.533 1584.75 485.872C1584.15 485.189 1583.29 484.848 1582.16 484.848C1580.9 484.848 1579.9 485.243 1579.15 486.032C1578.4 486.8 1578.03 487.952 1578.03 489.488V498H1573.04V480.784H1577.81V482.8C1578.47 482.075 1579.29 481.52 1580.27 481.136C1581.25 480.731 1582.33 480.528 1583.5 480.528Z" fill="black"/>
<rect x="1400" width="250" height="250" fill="#DCBFDC"/>
<path d="M1470.07 148L1465.75 141.76H1465.49H1460.98V148H1455.8V125.6H1465.49C1467.48 125.6 1469.19 125.931 1470.64 126.592C1472.12 127.253 1473.25 128.192 1474.04 129.408C1474.83 130.624 1475.22 132.064 1475.22 133.728C1475.22 135.392 1474.82 136.832 1474 138.048C1473.22 139.243 1472.08 140.16 1470.61 140.8L1475.64 148H1470.07ZM1469.97 133.728C1469.97 132.469 1469.57 131.509 1468.76 130.848C1467.95 130.165 1466.76 129.824 1465.2 129.824H1460.98V137.632H1465.2C1466.76 137.632 1467.95 137.291 1468.76 136.608C1469.57 135.925 1469.97 134.965 1469.97 133.728Z" fill="black"/>
<path d="M1495.84 139.456C1495.84 139.52 1495.81 139.968 1495.74 140.8H1482.72C1482.95 141.867 1483.51 142.709 1484.38 143.328C1485.26 143.947 1486.35 144.256 1487.65 144.256C1488.54 144.256 1489.33 144.128 1490.02 143.872C1490.72 143.595 1491.37 143.168 1491.97 142.592L1494.62 145.472C1493 147.328 1490.63 148.256 1487.52 148.256C1485.58 148.256 1483.86 147.883 1482.37 147.136C1480.87 146.368 1479.72 145.312 1478.91 143.968C1478.1 142.624 1477.7 141.099 1477.7 139.392C1477.7 137.707 1478.09 136.192 1478.88 134.848C1479.69 133.483 1480.79 132.427 1482.18 131.68C1483.58 130.912 1485.15 130.528 1486.88 130.528C1488.57 130.528 1490.09 130.891 1491.46 131.616C1492.82 132.341 1493.89 133.387 1494.66 134.752C1495.45 136.096 1495.84 137.664 1495.84 139.456ZM1486.91 134.304C1485.78 134.304 1484.83 134.624 1484.06 135.264C1483.3 135.904 1482.83 136.779 1482.66 137.888H1491.14C1490.97 136.8 1490.5 135.936 1489.73 135.296C1488.96 134.635 1488.02 134.304 1486.91 134.304Z" fill="black"/>
<path d="M1499.16 124.256H1504.16V148H1499.16V124.256Z" fill="black"/>
<path d="M1515.73 130.528C1518.4 130.528 1520.45 131.168 1521.88 132.448C1523.31 133.707 1524.02 135.616 1524.02 138.176V148H1519.35V145.856C1518.41 147.456 1516.66 148.256 1514.1 148.256C1512.78 148.256 1511.63 148.032 1510.64 147.584C1509.68 147.136 1508.95 146.517 1508.44 145.728C1507.92 144.939 1507.67 144.043 1507.67 143.04C1507.67 141.44 1508.27 140.181 1509.46 139.264C1510.68 138.347 1512.54 137.888 1515.06 137.888H1519.03C1519.03 136.8 1518.7 135.968 1518.04 135.392C1517.38 134.795 1516.38 134.496 1515.06 134.496C1514.14 134.496 1513.24 134.645 1512.34 134.944C1511.47 135.221 1510.72 135.605 1510.1 136.096L1508.31 132.608C1509.25 131.947 1510.37 131.435 1511.67 131.072C1512.99 130.709 1514.35 130.528 1515.73 130.528ZM1515.35 144.896C1516.2 144.896 1516.96 144.704 1517.62 144.32C1518.28 143.915 1518.75 143.328 1519.03 142.56V140.8H1515.6C1513.56 140.8 1512.53 141.472 1512.53 142.816C1512.53 143.456 1512.78 143.968 1513.27 144.352C1513.78 144.715 1514.47 144.896 1515.35 144.896Z" fill="black"/>
<path d="M1539.64 147.168C1539.15 147.531 1538.54 147.808 1537.82 148C1537.11 148.171 1536.37 148.256 1535.58 148.256C1533.53 148.256 1531.94 147.733 1530.81 146.688C1529.7 145.643 1529.15 144.107 1529.15 142.08V135.008H1526.49V131.168H1529.15V126.976H1534.14V131.168H1538.43V135.008H1534.14V142.016C1534.14 142.741 1534.32 143.307 1534.68 143.712C1535.07 144.096 1535.6 144.288 1536.28 144.288C1537.07 144.288 1537.74 144.075 1538.3 143.648L1539.64 147.168Z" fill="black"/>
<path d="M1542.44 130.784H1547.44V148H1542.44V130.784ZM1544.94 128.384C1544.02 128.384 1543.28 128.117 1542.7 127.584C1542.12 127.051 1541.84 126.389 1541.84 125.6C1541.84 124.811 1542.12 124.149 1542.7 123.616C1543.28 123.083 1544.02 122.816 1544.94 122.816C1545.86 122.816 1546.6 123.072 1547.18 123.584C1547.76 124.096 1548.04 124.736 1548.04 125.504C1548.04 126.336 1547.76 127.029 1547.18 127.584C1546.6 128.117 1545.86 128.384 1544.94 128.384Z" fill="black"/>
<path d="M1560.26 148.256C1558.45 148.256 1556.82 147.883 1555.37 147.136C1553.94 146.368 1552.82 145.312 1552.01 143.968C1551.19 142.624 1550.79 141.099 1550.79 139.392C1550.79 137.685 1551.19 136.16 1552.01 134.816C1552.82 133.472 1553.94 132.427 1555.37 131.68C1556.82 130.912 1558.45 130.528 1560.26 130.528C1562.07 130.528 1563.7 130.912 1565.13 131.68C1566.55 132.427 1567.67 133.472 1568.49 134.816C1569.3 136.16 1569.7 137.685 1569.7 139.392C1569.7 141.099 1569.3 142.624 1568.49 143.968C1567.67 145.312 1566.55 146.368 1565.13 147.136C1563.7 147.883 1562.07 148.256 1560.26 148.256ZM1560.26 144.16C1561.54 144.16 1562.59 143.733 1563.4 142.88C1564.23 142.005 1564.65 140.843 1564.65 139.392C1564.65 137.941 1564.23 136.789 1563.4 135.936C1562.59 135.061 1561.54 134.624 1560.26 134.624C1558.98 134.624 1557.93 135.061 1557.09 135.936C1556.26 136.789 1555.85 137.941 1555.85 139.392C1555.85 140.843 1556.26 142.005 1557.09 142.88C1557.93 143.733 1558.98 144.16 1560.26 144.16Z" fill="black"/>
<path d="M1583.5 130.528C1585.64 130.528 1587.35 131.168 1588.65 132.448C1589.98 133.728 1590.64 135.627 1590.64 138.144V148H1585.65V138.912C1585.65 137.547 1585.35 136.533 1584.75 135.872C1584.15 135.189 1583.29 134.848 1582.16 134.848C1580.9 134.848 1579.9 135.243 1579.15 136.032C1578.4 136.8 1578.03 137.952 1578.03 139.488V148H1573.04V130.784H1577.81V132.8C1578.47 132.075 1579.29 131.52 1580.27 131.136C1581.25 130.731 1582.33 130.528 1583.5 130.528Z" fill="black"/>
<line x1="250" y1="474" x2="350" y2="474" stroke="#DCBFDC" stroke-width="4"/>
<line x1="250" y1="135" x2="350" y2="135" stroke="#DCBFDC" stroke-width="4"/>
<line x1="1300" y1="135" x2="1400" y2="135" stroke="#DCBFDC" stroke-width="4"/>
<line x1="250" y1="843" x2="350" y2="843" stroke="#DCBFDC" stroke-width="4"/>
<line x1="1300" y1="474" x2="1400" y2="474" stroke="#DCBFDC" stroke-width="4"/>
<line x1="1300" y1="843" x2="1400" y2="843" stroke="#DCBFDC" stroke-width="4"/>
<path d="M123 250L111.453 270L134.547 270L123 250ZM125 350L125 345.833L121 345.833L121 350L125 350ZM125 337.5L125 329.167L121 329.167L121 337.5L125 337.5ZM125 320.833L125 312.5L121 312.5L121 320.833L125 320.833ZM125 304.167L125 295.833L121 295.833L121 304.167L125 304.167ZM125 287.5L125 279.167L121 279.167L121 287.5L125 287.5ZM125 270.833L125 262.5L121 262.5L121 270.833L125 270.833Z" fill="#DCBFDC"/>
<rect y="700" width="250" height="250" fill="#DCBFDC"/>
<path d="M70.0686 848L65.7486 841.76H65.4926H60.9806V848H55.7966V825.6H65.4926C67.4766 825.6 69.194 825.931 70.6446 826.592C72.1166 827.254 73.2473 828.192 74.0366 829.408C74.826 830.624 75.2206 832.064 75.2206 833.728C75.2206 835.392 74.8153 836.832 74.0046 838.048C73.2153 839.243 72.0846 840.16 70.6126 840.8L75.6366 848H70.0686ZM69.9726 833.728C69.9726 832.47 69.5673 831.51 68.7566 830.848C67.946 830.166 66.762 829.824 65.2046 829.824H60.9806V837.632H65.2046C66.762 837.632 67.946 837.291 68.7566 836.608C69.5673 835.926 69.9726 834.966 69.9726 833.728Z" fill="black"/>
<path d="M95.8399 839.456C95.8399 839.52 95.8079 839.968 95.7439 840.8H82.7199C82.9545 841.867 83.5092 842.71 84.3839 843.328C85.2585 843.947 86.3465 844.256 87.6479 844.256C88.5439 844.256 89.3332 844.128 90.0159 843.872C90.7199 843.595 91.3705 843.168 91.9679 842.592L94.6239 845.472C93.0026 847.328 90.6345 848.256 87.5199 848.256C85.5785 848.256 83.8612 847.883 82.3679 847.136C80.8745 846.368 79.7225 845.312 78.9119 843.968C78.1012 842.624 77.6959 841.099 77.6959 839.392C77.6959 837.707 78.0905 836.192 78.8799 834.848C79.6905 833.483 80.7892 832.427 82.1759 831.68C83.5839 830.912 85.1519 830.528 86.8799 830.528C88.5652 830.528 90.0905 830.891 91.4559 831.616C92.8212 832.342 93.8879 833.387 94.6559 834.752C95.4452 836.096 95.8399 837.664 95.8399 839.456ZM86.9119 834.304C85.7812 834.304 84.8319 834.624 84.0639 835.264C83.2959 835.904 82.8265 836.779 82.6559 837.888H91.1359C90.9652 836.8 90.4959 835.936 89.7279 835.296C88.9599 834.635 88.0212 834.304 86.9119 834.304Z" fill="black"/>
<path d="M99.1634 824.256H104.155V848H99.1634V824.256Z" fill="black"/>
<path d="M115.732 830.528C118.399 830.528 120.447 831.168 121.876 832.448C123.306 833.707 124.02 835.616 124.02 838.176V848H119.348V845.856C118.41 847.456 116.66 848.256 114.1 848.256C112.778 848.256 111.626 848.032 110.644 847.584C109.684 847.136 108.948 846.518 108.436 845.728C107.924 844.939 107.668 844.043 107.668 843.04C107.668 841.44 108.266 840.182 109.46 839.264C110.676 838.347 112.543 837.888 115.06 837.888H119.028C119.028 836.8 118.698 835.968 118.036 835.392C117.375 834.795 116.383 834.496 115.06 834.496C114.143 834.496 113.236 834.646 112.34 834.944C111.466 835.222 110.719 835.606 110.1 836.096L108.308 832.608C109.247 831.947 110.367 831.435 111.668 831.072C112.991 830.71 114.346 830.528 115.732 830.528ZM115.348 844.896C116.202 844.896 116.959 844.704 117.62 844.32C118.282 843.915 118.751 843.328 119.028 842.56V840.8H115.604C113.556 840.8 112.532 841.472 112.532 842.816C112.532 843.456 112.778 843.968 113.268 844.352C113.78 844.715 114.474 844.896 115.348 844.896Z" fill="black"/>
<path d="M139.642 847.168C139.152 847.531 138.544 847.808 137.818 848C137.114 848.171 136.368 848.256 135.578 848.256C133.53 848.256 131.941 847.734 130.81 846.688C129.701 845.643 129.146 844.107 129.146 842.08V835.008H126.49V831.168H129.146V826.976H134.138V831.168H138.426V835.008H134.138V842.016C134.138 842.742 134.32 843.307 134.682 843.712C135.066 844.096 135.6 844.288 136.282 844.288C137.072 844.288 137.744 844.075 138.298 843.648L139.642 847.168Z" fill="black"/>
<path d="M142.445 830.784H147.437V848H142.445V830.784ZM144.941 828.384C144.023 828.384 143.277 828.118 142.701 827.584C142.125 827.051 141.837 826.39 141.837 825.6C141.837 824.811 142.125 824.15 142.701 823.616C143.277 823.083 144.023 822.816 144.941 822.816C145.858 822.816 146.605 823.072 147.181 823.584C147.757 824.096 148.045 824.736 148.045 825.504C148.045 826.336 147.757 827.03 147.181 827.584C146.605 828.118 145.858 828.384 144.941 828.384Z" fill="black"/>
<path d="M160.262 848.256C158.448 848.256 156.816 847.883 155.366 847.136C153.936 846.368 152.816 845.312 152.006 843.968C151.195 842.624 150.79 841.099 150.79 839.392C150.79 837.686 151.195 836.16 152.006 834.816C152.816 833.472 153.936 832.427 155.366 831.68C156.816 830.912 158.448 830.528 160.262 830.528C162.075 830.528 163.696 830.912 165.126 831.68C166.555 832.427 167.675 833.472 168.486 834.816C169.296 836.16 169.702 837.686 169.702 839.392C169.702 841.099 169.296 842.624 168.486 843.968C167.675 845.312 166.555 846.368 165.126 847.136C163.696 847.883 162.075 848.256 160.262 848.256ZM160.262 844.16C161.542 844.16 162.587 843.734 163.398 842.88C164.23 842.006 164.646 840.843 164.646 839.392C164.646 837.942 164.23 836.79 163.398 835.936C162.587 835.062 161.542 834.624 160.262 834.624C158.982 834.624 157.926 835.062 157.094 835.936C156.262 836.79 155.846 837.942 155.846 839.392C155.846 840.843 156.262 842.006 157.094 842.88C157.926 843.734 158.982 844.16 160.262 844.16Z" fill="black"/>
<path d="M183.502 830.528C185.636 830.528 187.353 831.168 188.654 832.448C189.977 833.728 190.638 835.627 190.638 838.144V848H185.646V838.912C185.646 837.547 185.348 836.534 184.75 835.872C184.153 835.19 183.289 834.848 182.158 834.848C180.9 834.848 179.897 835.243 179.15 836.032C178.404 836.8 178.03 837.952 178.03 839.488V848H173.038V830.784H177.806V832.8C178.468 832.075 179.289 831.52 180.27 831.136C181.252 830.731 182.329 830.528 183.502 830.528Z" fill="black"/>
<path d="M123 600L111.453 620L134.547 620L123 600ZM125 700L125 695.833L121 695.833L121 700L125 700ZM125 687.5L125 679.167L121 679.167L121 687.5L125 687.5ZM125 670.833L125 662.5L121 662.5L121 670.833L125 670.833ZM125 654.167L125 645.833L121 645.833L121 654.167L125 654.167ZM125 637.5L125 629.167L121 629.167L121 637.5L125 637.5ZM125 620.833L125 612.5L121 612.5L121 620.833L125 620.833Z" fill="#DCBFDC"/>
<path d="M1525 600L1513.45 620L1536.55 620L1525 600ZM1527 700L1527 695.833L1523 695.833L1523 700L1527 700ZM1527 687.5L1527 679.167L1523 679.167L1523 687.5L1527 687.5ZM1527 670.833L1527 662.5L1523 662.5L1523 670.833L1527 670.833ZM1527 654.167L1527 645.833L1523 645.833L1523 654.167L1527 654.167ZM1527 637.5L1527 629.167L1523 629.167L1523 637.5L1527 637.5ZM1527 620.833L1527 612.5L1523 612.5L1523 620.833L1527 620.833Z" fill="#DCBFDC"/>
<path d="M1525 350L1513.45 330L1536.55 330L1525 350ZM1527 250L1527 254.167L1523 254.167L1523 250L1527 250ZM1527 262.5L1527 270.833L1523 270.833L1523 262.5L1527 262.5ZM1527 279.167L1527 287.5L1523 287.5L1523 279.167L1527 279.167ZM1527 295.833L1527 304.167L1523 304.167L1523 295.833L1527 295.833ZM1527 312.5L1527 320.833L1523 320.833L1523 312.5L1527 312.5ZM1527 329.167L1527 337.5L1523 337.5L1523 329.167L1527 329.167Z" fill="#DCBFDC"/>
<line x1="700" y1="477" x2="600" y2="477" stroke="#C594C5" stroke-width="4"/>
<line x1="1050" y1="477" x2="950" y2="477" stroke="#C594C5" stroke-width="4"/>
</svg>
