<svg width="1650" height="950" viewBox="0 0 1650 950" fill="none" xmlns="http://www.w3.org/2000/svg">
<rect y="350" width="250" height="250" fill="#DCBFDC"/>
<path d="M94.6211 478.456C94.6211 478.52 94.5891 478.968 94.5251 479.8H81.5011C81.7357 480.867 82.2904 481.71 83.1651 482.328C84.0397 482.947 85.1277 483.256 86.4291 483.256C87.3251 483.256 88.1144 483.128 88.7971 482.872C89.5011 482.595 90.1517 482.168 90.7491 481.592L93.4051 484.472C91.7837 486.328 89.4157 487.256 86.3011 487.256C84.3597 487.256 82.6424 486.883 81.1491 486.136C79.6557 485.368 78.5037 484.312 77.6931 482.968C76.8824 481.624 76.4771 480.099 76.4771 478.392C76.4771 476.707 76.8717 475.192 77.6611 473.848C78.4717 472.483 79.5704 471.427 80.9571 470.68C82.3651 469.912 83.9331 469.528 85.6611 469.528C87.3464 469.528 88.8717 469.891 90.2371 470.616C91.6024 471.342 92.6691 472.387 93.4371 473.752C94.2264 475.096 94.6211 476.664 94.6211 478.456ZM85.6931 473.304C84.5624 473.304 83.6131 473.624 82.8451 474.264C82.0771 474.904 81.6077 475.779 81.4371 476.888H89.9171C89.7464 475.8 89.2771 474.936 88.5091 474.296C87.7411 473.635 86.8024 473.304 85.6931 473.304Z" fill="black"/>
<path d="M115.481 463.256V487H110.713V485.016C109.475 486.51 107.683 487.256 105.337 487.256C103.715 487.256 102.243 486.894 100.921 486.168C99.6192 485.443 98.5952 484.408 97.8486 483.064C97.1019 481.72 96.7285 480.163 96.7285 478.392C96.7285 476.622 97.1019 475.064 97.8486 473.72C98.5952 472.376 99.6192 471.342 100.921 470.616C102.243 469.891 103.715 469.528 105.337 469.528C107.534 469.528 109.251 470.222 110.489 471.608V463.256H115.481ZM106.201 483.16C107.459 483.16 108.505 482.734 109.337 481.88C110.169 481.006 110.585 479.843 110.585 478.392C110.585 476.942 110.169 475.79 109.337 474.936C108.505 474.062 107.459 473.624 106.201 473.624C104.921 473.624 103.865 474.062 103.033 474.936C102.201 475.79 101.785 476.942 101.785 478.392C101.785 479.843 102.201 481.006 103.033 481.88C103.865 482.734 104.921 483.16 106.201 483.16Z" fill="black"/>
<path d="M120.101 469.784H125.093V487H120.101V469.784ZM122.597 467.384C121.679 467.384 120.933 467.118 120.357 466.584C119.781 466.051 119.493 465.39 119.493 464.6C119.493 463.811 119.781 463.15 120.357 462.616C120.933 462.083 121.679 461.816 122.597 461.816C123.514 461.816 124.261 462.072 124.837 462.584C125.413 463.096 125.701 463.736 125.701 464.504C125.701 465.336 125.413 466.03 124.837 466.584C124.261 467.118 123.514 467.384 122.597 467.384Z" fill="black"/>
<path d="M140.83 486.168C140.339 486.531 139.731 486.808 139.006 487C138.302 487.171 137.555 487.256 136.766 487.256C134.718 487.256 133.128 486.734 131.998 485.688C130.888 484.643 130.334 483.107 130.334 481.08V474.008H127.678V470.168H130.334V465.976H135.326V470.168H139.614V474.008H135.326V481.016C135.326 481.742 135.507 482.307 135.87 482.712C136.254 483.096 136.787 483.288 137.47 483.288C138.259 483.288 138.931 483.075 139.486 482.648L140.83 486.168Z" fill="black"/>
<path d="M151.293 487.256C149.479 487.256 147.847 486.883 146.397 486.136C144.967 485.368 143.847 484.312 143.037 482.968C142.226 481.624 141.821 480.099 141.821 478.392C141.821 476.686 142.226 475.16 143.037 473.816C143.847 472.472 144.967 471.427 146.397 470.68C147.847 469.912 149.479 469.528 151.293 469.528C153.106 469.528 154.727 469.912 156.157 470.68C157.586 471.427 158.706 472.472 159.517 473.816C160.327 475.16 160.733 476.686 160.733 478.392C160.733 480.099 160.327 481.624 159.517 482.968C158.706 484.312 157.586 485.368 156.157 486.136C154.727 486.883 153.106 487.256 151.293 487.256ZM151.293 483.16C152.573 483.16 153.618 482.734 154.429 481.88C155.261 481.006 155.677 479.843 155.677 478.392C155.677 476.942 155.261 475.79 154.429 474.936C153.618 474.062 152.573 473.624 151.293 473.624C150.013 473.624 148.957 474.062 148.125 474.936C147.293 475.79 146.877 476.942 146.877 478.392C146.877 479.843 147.293 481.006 148.125 481.88C148.957 482.734 150.013 483.16 151.293 483.16Z" fill="black"/>
<path d="M168.838 472.056C169.435 471.224 170.235 470.595 171.238 470.168C172.262 469.742 173.435 469.528 174.758 469.528V474.136C174.203 474.094 173.83 474.072 173.638 474.072C172.208 474.072 171.088 474.478 170.278 475.288C169.467 476.078 169.062 477.272 169.062 478.872V487H164.07V469.784H168.838V472.056Z" fill="black"/>
<rect x="352" y="2" width="246" height="946" fill="white" stroke="#C594C5" stroke-width="4"/>
<path d="M403.174 487.256C401.745 487.256 400.347 487.086 398.982 486.744C397.617 486.382 396.529 485.934 395.718 485.4L397.382 481.816C398.15 482.307 399.078 482.712 400.166 483.032C401.254 483.331 402.321 483.48 403.366 483.48C405.478 483.48 406.534 482.958 406.534 481.912C406.534 481.422 406.246 481.07 405.67 480.856C405.094 480.643 404.209 480.462 403.014 480.312C401.606 480.099 400.443 479.854 399.526 479.576C398.609 479.299 397.809 478.808 397.126 478.104C396.465 477.4 396.134 476.398 396.134 475.096C396.134 474.008 396.443 473.048 397.062 472.216C397.702 471.363 398.619 470.702 399.814 470.232C401.03 469.763 402.459 469.528 404.102 469.528C405.318 469.528 406.523 469.667 407.718 469.944C408.934 470.2 409.937 470.563 410.726 471.032L409.062 474.584C407.547 473.731 405.894 473.304 404.102 473.304C403.035 473.304 402.235 473.454 401.702 473.752C401.169 474.051 400.902 474.435 400.902 474.904C400.902 475.438 401.19 475.811 401.766 476.024C402.342 476.238 403.259 476.44 404.518 476.632C405.926 476.867 407.078 477.123 407.974 477.4C408.87 477.656 409.649 478.136 410.31 478.84C410.971 479.544 411.302 480.526 411.302 481.784C411.302 482.851 410.982 483.8 410.342 484.632C409.702 485.464 408.763 486.115 407.526 486.584C406.31 487.032 404.859 487.256 403.174 487.256Z" fill="black"/>
<path d="M414.382 463.256H419.374V487H414.382V463.256Z" fill="black"/>
<path d="M424.007 469.784H428.999V487H424.007V469.784ZM426.503 467.384C425.586 467.384 424.839 467.118 424.263 466.584C423.687 466.051 423.399 465.39 423.399 464.6C423.399 463.811 423.687 463.15 424.263 462.616C424.839 462.083 425.586 461.816 426.503 461.816C427.42 461.816 428.167 462.072 428.743 462.584C429.319 463.096 429.607 463.736 429.607 464.504C429.607 465.336 429.319 466.03 428.743 466.584C428.167 467.118 427.42 467.384 426.503 467.384Z" fill="black"/>
<path d="M451.168 463.256V487H446.4V485.016C445.163 486.51 443.371 487.256 441.024 487.256C439.403 487.256 437.931 486.894 436.608 486.168C435.307 485.443 434.283 484.408 433.536 483.064C432.789 481.72 432.416 480.163 432.416 478.392C432.416 476.622 432.789 475.064 433.536 473.72C434.283 472.376 435.307 471.342 436.608 470.616C437.931 469.891 439.403 469.528 441.024 469.528C443.221 469.528 444.939 470.222 446.176 471.608V463.256H451.168ZM441.888 483.16C443.147 483.16 444.192 482.734 445.024 481.88C445.856 481.006 446.272 479.843 446.272 478.392C446.272 476.942 445.856 475.79 445.024 474.936C444.192 474.062 443.147 473.624 441.888 473.624C440.608 473.624 439.552 474.062 438.72 474.936C437.888 475.79 437.472 476.942 437.472 478.392C437.472 479.843 437.888 481.006 438.72 481.88C439.552 482.734 440.608 483.16 441.888 483.16Z" fill="black"/>
<path d="M472.652 478.456C472.652 478.52 472.62 478.968 472.556 479.8H459.532C459.767 480.867 460.322 481.71 461.196 482.328C462.071 482.947 463.159 483.256 464.46 483.256C465.356 483.256 466.146 483.128 466.828 482.872C467.532 482.595 468.183 482.168 468.78 481.592L471.436 484.472C469.815 486.328 467.447 487.256 464.332 487.256C462.391 487.256 460.674 486.883 459.18 486.136C457.687 485.368 456.535 484.312 455.724 482.968C454.914 481.624 454.508 480.099 454.508 478.392C454.508 476.707 454.903 475.192 455.692 473.848C456.503 472.483 457.602 471.427 458.988 470.68C460.396 469.912 461.964 469.528 463.692 469.528C465.378 469.528 466.903 469.891 468.268 470.616C469.634 471.342 470.7 472.387 471.468 473.752C472.258 475.096 472.652 476.664 472.652 478.456ZM463.724 473.304C462.594 473.304 461.644 473.624 460.876 474.264C460.108 474.904 459.639 475.779 459.468 476.888H467.948C467.778 475.8 467.308 474.936 466.54 474.296C465.772 473.635 464.834 473.304 463.724 473.304Z" fill="black"/>
<path d="M493.512 463.256V487H488.744V485.016C487.507 486.51 485.715 487.256 483.368 487.256C481.747 487.256 480.275 486.894 478.952 486.168C477.651 485.443 476.627 484.408 475.88 483.064C475.133 481.72 474.76 480.163 474.76 478.392C474.76 476.622 475.133 475.064 475.88 473.72C476.627 472.376 477.651 471.342 478.952 470.616C480.275 469.891 481.747 469.528 483.368 469.528C485.565 469.528 487.283 470.222 488.52 471.608V463.256H493.512ZM484.232 483.16C485.491 483.16 486.536 482.734 487.368 481.88C488.2 481.006 488.616 479.843 488.616 478.392C488.616 476.942 488.2 475.79 487.368 474.936C486.536 474.062 485.491 473.624 484.232 473.624C482.952 473.624 481.896 474.062 481.064 474.936C480.232 475.79 479.816 476.942 479.816 478.392C479.816 479.843 480.232 481.006 481.064 481.88C481.896 482.734 482.952 483.16 484.232 483.16Z" fill="black"/>
<path d="M514.996 478.456C514.996 478.52 514.964 478.968 514.9 479.8H501.876C502.111 480.867 502.665 481.71 503.54 482.328C504.415 482.947 505.503 483.256 506.804 483.256C507.7 483.256 508.489 483.128 509.172 482.872C509.876 482.595 510.527 482.168 511.124 481.592L513.78 484.472C512.159 486.328 509.791 487.256 506.676 487.256C504.735 487.256 503.017 486.883 501.524 486.136C500.031 485.368 498.879 484.312 498.068 482.968C497.257 481.624 496.852 480.099 496.852 478.392C496.852 476.707 497.247 475.192 498.036 473.848C498.847 472.483 499.945 471.427 501.332 470.68C502.74 469.912 504.308 469.528 506.036 469.528C507.721 469.528 509.247 469.891 510.612 470.616C511.977 471.342 513.044 472.387 513.812 473.752C514.601 475.096 514.996 476.664 514.996 478.456ZM506.068 473.304C504.937 473.304 503.988 473.624 503.22 474.264C502.452 474.904 501.983 475.779 501.812 476.888H510.292C510.121 475.8 509.652 474.936 508.884 474.296C508.116 473.635 507.177 473.304 506.068 473.304Z" fill="black"/>
<path d="M526.64 487.256C524.805 487.256 523.152 486.883 521.68 486.136C520.229 485.368 519.088 484.312 518.256 482.968C517.445 481.624 517.04 480.099 517.04 478.392C517.04 476.686 517.445 475.16 518.256 473.816C519.088 472.472 520.229 471.427 521.68 470.68C523.152 469.912 524.805 469.528 526.64 469.528C528.453 469.528 530.032 469.912 531.376 470.68C532.741 471.427 533.733 472.504 534.352 473.912L530.48 475.992C529.584 474.414 528.293 473.624 526.608 473.624C525.306 473.624 524.229 474.051 523.376 474.904C522.522 475.758 522.096 476.92 522.096 478.392C522.096 479.864 522.522 481.027 523.376 481.88C524.229 482.734 525.306 483.16 526.608 483.16C528.314 483.16 529.605 482.371 530.48 480.792L534.352 482.904C533.733 484.27 532.741 485.336 531.376 486.104C530.032 486.872 528.453 487.256 526.64 487.256Z" fill="black"/>
<path d="M544.493 480.248L542.093 482.616V487H537.101V463.256H542.093V476.696L549.389 469.784H555.341L548.173 477.08L555.981 487H549.933L544.493 480.248Z" fill="black"/>
<rect x="700" width="250" height="950" fill="#C594C5"/>
<path d="M756.168 463.256V487H751.4V485.016C750.163 486.51 748.371 487.256 746.024 487.256C744.403 487.256 742.931 486.894 741.608 486.168C740.307 485.443 739.283 484.408 738.536 483.064C737.789 481.72 737.416 480.163 737.416 478.392C737.416 476.622 737.789 475.064 738.536 473.72C739.283 472.376 740.307 471.342 741.608 470.616C742.931 469.891 744.403 469.528 746.024 469.528C748.221 469.528 749.939 470.222 751.176 471.608V463.256H756.168ZM746.888 483.16C748.147 483.16 749.192 482.734 750.024 481.88C750.856 481.006 751.272 479.843 751.272 478.392C751.272 476.942 750.856 475.79 750.024 474.936C749.192 474.062 748.147 473.624 746.888 473.624C745.608 473.624 744.552 474.062 743.72 474.936C742.888 475.79 742.472 476.942 742.472 478.392C742.472 479.843 742.888 481.006 743.72 481.88C744.552 482.734 745.608 483.16 746.888 483.16Z" fill="black"/>
<path d="M760.788 469.784H765.78V487H760.788V469.784ZM763.284 467.384C762.367 467.384 761.62 467.118 761.044 466.584C760.468 466.051 760.18 465.39 760.18 464.6C760.18 463.811 760.468 463.15 761.044 462.616C761.62 462.083 762.367 461.816 763.284 461.816C764.202 461.816 764.948 462.072 765.524 462.584C766.1 463.096 766.388 463.736 766.388 464.504C766.388 465.336 766.1 466.03 765.524 466.584C764.948 467.118 764.202 467.384 763.284 467.384Z" fill="black"/>
<path d="M778.605 487.256C776.792 487.256 775.16 486.883 773.709 486.136C772.28 485.368 771.16 484.312 770.349 482.968C769.539 481.624 769.133 480.099 769.133 478.392C769.133 476.686 769.539 475.16 770.349 473.816C771.16 472.472 772.28 471.427 773.709 470.68C775.16 469.912 776.792 469.528 778.605 469.528C780.419 469.528 782.04 469.912 783.469 470.68C784.899 471.427 786.019 472.472 786.829 473.816C787.64 475.16 788.045 476.686 788.045 478.392C788.045 480.099 787.64 481.624 786.829 482.968C786.019 484.312 784.899 485.368 783.469 486.136C782.04 486.883 780.419 487.256 778.605 487.256ZM778.605 483.16C779.885 483.16 780.931 482.734 781.741 481.88C782.573 481.006 782.989 479.843 782.989 478.392C782.989 476.942 782.573 475.79 781.741 474.936C780.931 474.062 779.885 473.624 778.605 473.624C777.325 473.624 776.269 474.062 775.437 474.936C774.605 475.79 774.189 476.942 774.189 478.392C774.189 479.843 774.605 481.006 775.437 481.88C776.269 482.734 777.325 483.16 778.605 483.16Z" fill="black"/>
<path d="M796.15 472.056C796.747 471.224 797.547 470.595 798.55 470.168C799.574 469.742 800.747 469.528 802.07 469.528V474.136C801.515 474.094 801.142 474.072 800.95 474.072C799.521 474.072 798.401 474.478 797.59 475.288C796.779 476.078 796.374 477.272 796.374 478.872V487H791.382V469.784H796.15V472.056Z" fill="black"/>
<path d="M811.889 469.528C814.555 469.528 816.603 470.168 818.033 471.448C819.462 472.707 820.177 474.616 820.177 477.176V487H815.505V484.856C814.566 486.456 812.817 487.256 810.257 487.256C808.934 487.256 807.782 487.032 806.801 486.584C805.841 486.136 805.105 485.518 804.593 484.728C804.081 483.939 803.825 483.043 803.825 482.04C803.825 480.44 804.422 479.182 805.617 478.264C806.833 477.347 808.699 476.888 811.217 476.888H815.185C815.185 475.8 814.854 474.968 814.193 474.392C813.531 473.795 812.539 473.496 811.217 473.496C810.299 473.496 809.393 473.646 808.497 473.944C807.622 474.222 806.875 474.606 806.257 475.096L804.465 471.608C805.403 470.947 806.523 470.435 807.825 470.072C809.147 469.71 810.502 469.528 811.889 469.528ZM811.505 483.896C812.358 483.896 813.115 483.704 813.777 483.32C814.438 482.915 814.907 482.328 815.185 481.56V479.8H811.761C809.713 479.8 808.689 480.472 808.689 481.816C808.689 482.456 808.934 482.968 809.425 483.352C809.937 483.715 810.63 483.896 811.505 483.896Z" fill="black"/>
<path d="M846.743 469.528C848.897 469.528 850.604 470.168 851.863 471.448C853.143 472.707 853.783 474.606 853.783 477.144V487H848.791V477.912C848.791 476.547 848.503 475.534 847.927 474.872C847.372 474.19 846.572 473.848 845.527 473.848C844.353 473.848 843.425 474.232 842.743 475C842.06 475.747 841.719 476.867 841.719 478.36V487H836.727V477.912C836.727 475.203 835.639 473.848 833.463 473.848C832.311 473.848 831.393 474.232 830.711 475C830.028 475.747 829.687 476.867 829.687 478.36V487H824.695V469.784H829.463V471.768C830.103 471.043 830.881 470.488 831.799 470.104C832.737 469.72 833.761 469.528 834.871 469.528C836.087 469.528 837.185 469.774 838.167 470.264C839.148 470.734 839.937 471.427 840.535 472.344C841.239 471.448 842.124 470.755 843.191 470.264C844.279 469.774 845.463 469.528 846.743 469.528Z" fill="black"/>
<path d="M865.201 469.528C867.868 469.528 869.916 470.168 871.345 471.448C872.774 472.707 873.489 474.616 873.489 477.176V487H868.817V484.856C867.878 486.456 866.129 487.256 863.569 487.256C862.246 487.256 861.094 487.032 860.113 486.584C859.153 486.136 858.417 485.518 857.905 484.728C857.393 483.939 857.137 483.043 857.137 482.04C857.137 480.44 857.734 479.182 858.929 478.264C860.145 477.347 862.012 476.888 864.529 476.888H868.497C868.497 475.8 868.166 474.968 867.505 474.392C866.844 473.795 865.852 473.496 864.529 473.496C863.612 473.496 862.705 473.646 861.809 473.944C860.934 474.222 860.188 474.606 859.569 475.096L857.777 471.608C858.716 470.947 859.836 470.435 861.137 470.072C862.46 469.71 863.814 469.528 865.201 469.528ZM864.817 483.896C865.67 483.896 866.428 483.704 867.089 483.32C867.75 482.915 868.22 482.328 868.497 481.56V479.8H865.073C863.025 479.8 862.001 480.472 862.001 481.816C862.001 482.456 862.246 482.968 862.737 483.352C863.249 483.715 863.942 483.896 864.817 483.896Z" fill="black"/>
<path d="M879.895 487.256C879.02 487.256 878.284 486.958 877.687 486.36C877.09 485.763 876.791 485.016 876.791 484.12C876.791 483.203 877.09 482.467 877.687 481.912C878.284 481.336 879.02 481.048 879.895 481.048C880.77 481.048 881.506 481.336 882.103 481.912C882.7 482.467 882.999 483.203 882.999 484.12C882.999 485.016 882.7 485.763 882.103 486.36C881.506 486.958 880.77 487.256 879.895 487.256Z" fill="black"/>
<path d="M886.382 469.784H891.374V487H886.382V469.784ZM888.878 467.384C887.961 467.384 887.214 467.118 886.638 466.584C886.062 466.051 885.774 465.39 885.774 464.6C885.774 463.811 886.062 463.15 886.638 462.616C887.214 462.083 887.961 461.816 888.878 461.816C889.795 461.816 890.542 462.072 891.118 462.584C891.694 463.096 891.982 463.736 891.982 464.504C891.982 465.336 891.694 466.03 891.118 466.584C890.542 467.118 889.795 467.384 888.878 467.384Z" fill="black"/>
<path d="M904.199 487.256C902.386 487.256 900.754 486.883 899.303 486.136C897.874 485.368 896.754 484.312 895.943 482.968C895.132 481.624 894.727 480.099 894.727 478.392C894.727 476.686 895.132 475.16 895.943 473.816C896.754 472.472 897.874 471.427 899.303 470.68C900.754 469.912 902.386 469.528 904.199 469.528C906.012 469.528 907.634 469.912 909.063 470.68C910.492 471.427 911.612 472.472 912.423 473.816C913.234 475.16 913.639 476.686 913.639 478.392C913.639 480.099 913.234 481.624 912.423 482.968C911.612 484.312 910.492 485.368 909.063 486.136C907.634 486.883 906.012 487.256 904.199 487.256ZM904.199 483.16C905.479 483.16 906.524 482.734 907.335 481.88C908.167 481.006 908.583 479.843 908.583 478.392C908.583 476.942 908.167 475.79 907.335 474.936C906.524 474.062 905.479 473.624 904.199 473.624C902.919 473.624 901.863 474.062 901.031 474.936C900.199 475.79 899.783 476.942 899.783 478.392C899.783 479.843 900.199 481.006 901.031 481.88C901.863 482.734 902.919 483.16 904.199 483.16Z" fill="black"/>
<g opacity="0.3">
<rect x="1052" y="2" width="246" height="946" fill="white" stroke="#C594C5" stroke-width="4"/>
<path d="M1091.62 487.256C1089.79 487.256 1088.14 486.883 1086.66 486.136C1085.21 485.368 1084.07 484.312 1083.24 482.968C1082.43 481.624 1082.02 480.099 1082.02 478.392C1082.02 476.685 1082.43 475.16 1083.24 473.816C1084.07 472.472 1085.21 471.427 1086.66 470.68C1088.14 469.912 1089.79 469.528 1091.62 469.528C1093.44 469.528 1095.02 469.912 1096.36 470.68C1097.73 471.427 1098.72 472.504 1099.34 473.912L1095.46 475.992C1094.57 474.413 1093.28 473.624 1091.59 473.624C1090.29 473.624 1089.21 474.051 1088.36 474.904C1087.51 475.757 1087.08 476.92 1087.08 478.392C1087.08 479.864 1087.51 481.027 1088.36 481.88C1089.21 482.733 1090.29 483.16 1091.59 483.16C1093.3 483.16 1094.59 482.371 1095.46 480.792L1099.34 482.904C1098.72 484.269 1097.73 485.336 1096.36 486.104C1095.02 486.872 1093.44 487.256 1091.62 487.256Z" fill="black"/>
<path d="M1110.18 487.256C1108.37 487.256 1106.74 486.883 1105.29 486.136C1103.86 485.368 1102.74 484.312 1101.93 482.968C1101.12 481.624 1100.71 480.099 1100.71 478.392C1100.71 476.685 1101.12 475.16 1101.93 473.816C1102.74 472.472 1103.86 471.427 1105.29 470.68C1106.74 469.912 1108.37 469.528 1110.18 469.528C1112 469.528 1113.62 469.912 1115.05 470.68C1116.48 471.427 1117.6 472.472 1118.41 473.816C1119.22 475.16 1119.62 476.685 1119.62 478.392C1119.62 480.099 1119.22 481.624 1118.41 482.968C1117.6 484.312 1116.48 485.368 1115.05 486.136C1113.62 486.883 1112 487.256 1110.18 487.256ZM1110.18 483.16C1111.46 483.16 1112.51 482.733 1113.32 481.88C1114.15 481.005 1114.57 479.843 1114.57 478.392C1114.57 476.941 1114.15 475.789 1113.32 474.936C1112.51 474.061 1111.46 473.624 1110.18 473.624C1108.9 473.624 1107.85 474.061 1107.02 474.936C1106.18 475.789 1105.77 476.941 1105.77 478.392C1105.77 479.843 1106.18 481.005 1107.02 481.88C1107.85 482.733 1108.9 483.16 1110.18 483.16Z" fill="black"/>
<path d="M1133.42 469.528C1135.56 469.528 1137.27 470.168 1138.58 471.448C1139.9 472.728 1140.56 474.627 1140.56 477.144V487H1135.57V477.912C1135.57 476.547 1135.27 475.533 1134.67 474.872C1134.07 474.189 1133.21 473.848 1132.08 473.848C1130.82 473.848 1129.82 474.243 1129.07 475.032C1128.33 475.8 1127.95 476.952 1127.95 478.488V487H1122.96V469.784H1127.73V471.8C1128.39 471.075 1129.21 470.52 1130.19 470.136C1131.17 469.731 1132.25 469.528 1133.42 469.528Z" fill="black"/>
<path d="M1150.56 470.168H1154.97V474.008H1150.69V487H1145.69V474.008H1143.04V470.168H1145.69V469.4C1145.69 467.437 1146.27 465.88 1147.42 464.728C1148.59 463.576 1150.24 463 1152.35 463C1153.1 463 1153.8 463.085 1154.46 463.256C1155.14 463.405 1155.71 463.629 1156.16 463.928L1154.85 467.544C1154.27 467.139 1153.6 466.936 1152.83 466.936C1151.31 466.936 1150.56 467.768 1150.56 469.432V470.168Z" fill="black"/>
<path d="M1174.11 478.456C1174.11 478.52 1174.07 478.968 1174.01 479.8H1160.99C1161.22 480.867 1161.77 481.709 1162.65 482.328C1163.52 482.947 1164.61 483.256 1165.91 483.256C1166.81 483.256 1167.6 483.128 1168.28 482.872C1168.99 482.595 1169.64 482.168 1170.23 481.592L1172.89 484.472C1171.27 486.328 1168.9 487.256 1165.79 487.256C1163.84 487.256 1162.13 486.883 1160.63 486.136C1159.14 485.368 1157.99 484.312 1157.18 482.968C1156.37 481.624 1155.96 480.099 1155.96 478.392C1155.96 476.707 1156.36 475.192 1157.15 473.848C1157.96 472.483 1159.05 471.427 1160.44 470.68C1161.85 469.912 1163.42 469.528 1165.15 469.528C1166.83 469.528 1168.36 469.891 1169.72 470.616C1171.09 471.341 1172.15 472.387 1172.92 473.752C1173.71 475.096 1174.11 476.664 1174.11 478.456ZM1165.18 473.304C1164.05 473.304 1163.1 473.624 1162.33 474.264C1161.56 474.904 1161.09 475.779 1160.92 476.888H1169.4C1169.23 475.8 1168.76 474.936 1167.99 474.296C1167.23 473.635 1166.29 473.304 1165.18 473.304Z" fill="black"/>
<path d="M1182.2 472.056C1182.79 471.224 1183.59 470.595 1184.6 470.168C1185.62 469.741 1186.79 469.528 1188.12 469.528V474.136C1187.56 474.093 1187.19 474.072 1187 474.072C1185.57 474.072 1184.45 474.477 1183.64 475.288C1182.83 476.077 1182.42 477.272 1182.42 478.872V487H1177.43V469.784H1182.2V472.056Z" fill="black"/>
<path d="M1207.79 478.456C1207.79 478.52 1207.76 478.968 1207.7 479.8H1194.67C1194.91 480.867 1195.46 481.709 1196.34 482.328C1197.21 482.947 1198.3 483.256 1199.6 483.256C1200.5 483.256 1201.29 483.128 1201.97 482.872C1202.67 482.595 1203.32 482.168 1203.92 481.592L1206.58 484.472C1204.96 486.328 1202.59 487.256 1199.47 487.256C1197.53 487.256 1195.81 486.883 1194.32 486.136C1192.83 485.368 1191.68 484.312 1190.87 482.968C1190.05 481.624 1189.65 480.099 1189.65 478.392C1189.65 476.707 1190.04 475.192 1190.83 473.848C1191.64 472.483 1192.74 471.427 1194.13 470.68C1195.54 469.912 1197.11 469.528 1198.83 469.528C1200.52 469.528 1202.04 469.891 1203.41 470.616C1204.77 471.341 1205.84 472.387 1206.61 473.752C1207.4 475.096 1207.79 476.664 1207.79 478.456ZM1198.87 473.304C1197.73 473.304 1196.79 473.624 1196.02 474.264C1195.25 474.904 1194.78 475.779 1194.61 476.888H1203.09C1202.92 475.8 1202.45 474.936 1201.68 474.296C1200.91 473.635 1199.97 473.304 1198.87 473.304Z" fill="black"/>
<path d="M1221.58 469.528C1223.71 469.528 1225.43 470.168 1226.73 471.448C1228.06 472.728 1228.72 474.627 1228.72 477.144V487H1223.72V477.912C1223.72 476.547 1223.43 475.533 1222.83 474.872C1222.23 474.189 1221.37 473.848 1220.24 473.848C1218.98 473.848 1217.98 474.243 1217.23 475.032C1216.48 475.8 1216.11 476.952 1216.11 478.488V487H1211.12V469.784H1215.88V471.8C1216.55 471.075 1217.37 470.52 1218.35 470.136C1219.33 469.731 1220.41 469.528 1221.58 469.528Z" fill="black"/>
<path d="M1241.75 487.256C1239.91 487.256 1238.26 486.883 1236.79 486.136C1235.34 485.368 1234.2 484.312 1233.37 482.968C1232.55 481.624 1232.15 480.099 1232.15 478.392C1232.15 476.685 1232.55 475.16 1233.37 473.816C1234.2 472.472 1235.34 471.427 1236.79 470.68C1238.26 469.912 1239.91 469.528 1241.75 469.528C1243.56 469.528 1245.14 469.912 1246.49 470.68C1247.85 471.427 1248.84 472.504 1249.46 473.912L1245.59 475.992C1244.69 474.413 1243.4 473.624 1241.72 473.624C1240.42 473.624 1239.34 474.051 1238.49 474.904C1237.63 475.757 1237.21 476.92 1237.21 478.392C1237.21 479.864 1237.63 481.027 1238.49 481.88C1239.34 482.733 1240.42 483.16 1241.72 483.16C1243.42 483.16 1244.71 482.371 1245.59 480.792L1249.46 482.904C1248.84 484.269 1247.85 485.336 1246.49 486.104C1245.14 486.872 1243.56 487.256 1241.75 487.256Z" fill="black"/>
<path d="M1268.98 478.456C1268.98 478.52 1268.95 478.968 1268.88 479.8H1255.86C1256.1 480.867 1256.65 481.709 1257.52 482.328C1258.4 482.947 1259.49 483.256 1260.79 483.256C1261.68 483.256 1262.47 483.128 1263.16 482.872C1263.86 482.595 1264.51 482.168 1265.11 481.592L1267.76 484.472C1266.14 486.328 1263.78 487.256 1260.66 487.256C1258.72 487.256 1257 486.883 1255.51 486.136C1254.02 485.368 1252.86 484.312 1252.05 482.968C1251.24 481.624 1250.84 480.099 1250.84 478.392C1250.84 476.707 1251.23 475.192 1252.02 473.848C1252.83 472.483 1253.93 471.427 1255.32 470.68C1256.72 469.912 1258.29 469.528 1260.02 469.528C1261.71 469.528 1263.23 469.891 1264.6 470.616C1265.96 471.341 1267.03 472.387 1267.8 473.752C1268.59 475.096 1268.98 476.664 1268.98 478.456ZM1260.05 473.304C1258.92 473.304 1257.97 473.624 1257.2 474.264C1256.44 474.904 1255.97 475.779 1255.8 476.888H1264.28C1264.11 475.8 1263.64 474.936 1262.87 474.296C1262.1 473.635 1261.16 473.304 1260.05 473.304Z" fill="black"/>
</g>
<rect width="250" height="250" fill="#DCBFDC"/>
<path d="M88.845 119.784L81.581 137H76.429L69.197 119.784H74.349L79.117 131.496L84.045 119.784H88.845Z" fill="black"/>
<path d="M90.882 119.784H95.874V137H90.882V119.784ZM93.378 117.384C92.4607 117.384 91.714 117.118 91.138 116.584C90.562 116.051 90.274 115.39 90.274 114.6C90.274 113.811 90.562 113.15 91.138 112.616C91.714 112.083 92.4607 111.816 93.378 111.816C94.2954 111.816 95.042 112.072 95.618 112.584C96.194 113.096 96.482 113.736 96.482 114.504C96.482 115.336 96.194 116.03 95.618 116.584C95.042 117.118 94.2954 117.384 93.378 117.384Z" fill="black"/>
<path d="M117.371 128.456C117.371 128.52 117.339 128.968 117.275 129.8H104.251C104.486 130.867 105.04 131.71 105.915 132.328C106.79 132.947 107.878 133.256 109.179 133.256C110.075 133.256 110.864 133.128 111.547 132.872C112.251 132.595 112.902 132.168 113.499 131.592L116.155 134.472C114.534 136.328 112.166 137.256 109.051 137.256C107.11 137.256 105.392 136.883 103.899 136.136C102.406 135.368 101.254 134.312 100.443 132.968C99.6324 131.624 99.227 130.099 99.227 128.392C99.227 126.707 99.6217 125.192 100.411 123.848C101.222 122.483 102.32 121.427 103.707 120.68C105.115 119.912 106.683 119.528 108.411 119.528C110.096 119.528 111.622 119.891 112.987 120.616C114.352 121.342 115.419 122.387 116.187 123.752C116.976 125.096 117.371 126.664 117.371 128.456ZM108.443 123.304C107.312 123.304 106.363 123.624 105.595 124.264C104.827 124.904 104.358 125.779 104.187 126.888H112.667C112.496 125.8 112.027 124.936 111.259 124.296C110.491 123.635 109.552 123.304 108.443 123.304Z" fill="black"/>
<path d="M148.03 119.784L141.79 137H136.99L133.118 126.312L129.118 137H124.318L118.11 119.784H122.814L126.878 131.432L131.102 119.784H135.326L139.422 131.432L143.614 119.784H148.03Z" fill="black"/>
<path d="M166.746 128.456C166.746 128.52 166.714 128.968 166.65 129.8H153.626C153.861 130.867 154.415 131.71 155.29 132.328C156.165 132.947 157.253 133.256 158.554 133.256C159.45 133.256 160.239 133.128 160.922 132.872C161.626 132.595 162.277 132.168 162.874 131.592L165.53 134.472C163.909 136.328 161.541 137.256 158.426 137.256C156.485 137.256 154.767 136.883 153.274 136.136C151.781 135.368 150.629 134.312 149.818 132.968C149.007 131.624 148.602 130.099 148.602 128.392C148.602 126.707 148.997 125.192 149.786 123.848C150.597 122.483 151.695 121.427 153.082 120.68C154.49 119.912 156.058 119.528 157.786 119.528C159.471 119.528 160.997 119.891 162.362 120.616C163.727 121.342 164.794 122.387 165.562 123.752C166.351 125.096 166.746 126.664 166.746 128.456ZM157.818 123.304C156.687 123.304 155.738 123.624 154.97 124.264C154.202 124.904 153.733 125.779 153.562 126.888H162.042C161.871 125.8 161.402 124.936 160.634 124.296C159.866 123.635 158.927 123.304 157.818 123.304Z" fill="black"/>
<path d="M174.838 122.056C175.435 121.224 176.235 120.595 177.238 120.168C178.262 119.742 179.435 119.528 180.758 119.528V124.136C180.203 124.094 179.83 124.072 179.638 124.072C178.208 124.072 177.088 124.478 176.278 125.288C175.467 126.078 175.062 127.272 175.062 128.872V137H170.07V119.784H174.838V122.056Z" fill="black"/>
<g opacity="0.3">
<rect x="1400" y="700" width="250" height="250" fill="#DCBFDC"/>
<path d="M1467.14 837.256C1465.71 837.256 1464.32 837.085 1462.95 836.744C1461.59 836.381 1460.5 835.933 1459.69 835.4L1461.35 831.816C1462.12 832.307 1463.05 832.712 1464.13 833.032C1465.22 833.331 1466.29 833.48 1467.33 833.48C1469.45 833.48 1470.5 832.957 1470.5 831.912C1470.5 831.421 1470.21 831.069 1469.64 830.856C1469.06 830.643 1468.18 830.461 1466.98 830.312C1465.57 830.099 1464.41 829.853 1463.49 829.576C1462.58 829.299 1461.78 828.808 1461.09 828.104C1460.43 827.4 1460.1 826.397 1460.1 825.096C1460.1 824.008 1460.41 823.048 1461.03 822.216C1461.67 821.363 1462.59 820.701 1463.78 820.232C1465 819.763 1466.43 819.528 1468.07 819.528C1469.29 819.528 1470.49 819.667 1471.69 819.944C1472.9 820.2 1473.91 820.563 1474.69 821.032L1473.03 824.584C1471.52 823.731 1469.86 823.304 1468.07 823.304C1467 823.304 1466.2 823.453 1465.67 823.752C1465.14 824.051 1464.87 824.435 1464.87 824.904C1464.87 825.437 1465.16 825.811 1465.73 826.024C1466.31 826.237 1467.23 826.44 1468.49 826.632C1469.89 826.867 1471.05 827.123 1471.94 827.4C1472.84 827.656 1473.62 828.136 1474.28 828.84C1474.94 829.544 1475.27 830.525 1475.27 831.784C1475.27 832.851 1474.95 833.8 1474.31 834.632C1473.67 835.464 1472.73 836.115 1471.49 836.584C1470.28 837.032 1468.83 837.256 1467.14 837.256Z" fill="black"/>
<path d="M1488.53 819.528C1490.13 819.528 1491.58 819.901 1492.88 820.648C1494.2 821.373 1495.24 822.408 1495.98 823.752C1496.73 825.075 1497.1 826.621 1497.1 828.392C1497.1 830.163 1496.73 831.72 1495.98 833.064C1495.24 834.387 1494.2 835.421 1492.88 836.168C1491.58 836.893 1490.13 837.256 1488.53 837.256C1486.33 837.256 1484.6 836.563 1483.34 835.176V843.208H1478.35V819.784H1483.12V821.768C1484.36 820.275 1486.16 819.528 1488.53 819.528ZM1487.66 833.16C1488.94 833.16 1489.99 832.733 1490.8 831.88C1491.63 831.005 1492.05 829.843 1492.05 828.392C1492.05 826.941 1491.63 825.789 1490.8 824.936C1489.99 824.061 1488.94 823.624 1487.66 823.624C1486.38 823.624 1485.33 824.061 1484.49 824.936C1483.68 825.789 1483.28 826.941 1483.28 828.392C1483.28 829.843 1483.68 831.005 1484.49 831.88C1485.33 832.733 1486.38 833.16 1487.66 833.16Z" fill="black"/>
<path d="M1517.31 828.456C1517.31 828.52 1517.28 828.968 1517.21 829.8H1504.19C1504.42 830.867 1504.98 831.709 1505.85 832.328C1506.73 832.947 1507.82 833.256 1509.12 833.256C1510.01 833.256 1510.8 833.128 1511.48 832.872C1512.19 832.595 1512.84 832.168 1513.44 831.592L1516.09 834.472C1514.47 836.328 1512.1 837.256 1508.99 837.256C1507.05 837.256 1505.33 836.883 1503.84 836.136C1502.34 835.368 1501.19 834.312 1500.38 832.968C1499.57 831.624 1499.16 830.099 1499.16 828.392C1499.16 826.707 1499.56 825.192 1500.35 823.848C1501.16 822.483 1502.26 821.427 1503.64 820.68C1505.05 819.912 1506.62 819.528 1508.35 819.528C1510.03 819.528 1511.56 819.891 1512.92 820.616C1514.29 821.341 1515.36 822.387 1516.12 823.752C1516.91 825.096 1517.31 826.664 1517.31 828.456ZM1508.38 823.304C1507.25 823.304 1506.3 823.624 1505.53 824.264C1504.76 824.904 1504.3 825.779 1504.12 826.888H1512.6C1512.43 825.8 1511.96 824.936 1511.2 824.296C1510.43 823.635 1509.49 823.304 1508.38 823.304Z" fill="black"/>
<path d="M1527.11 819.528C1529.77 819.528 1531.82 820.168 1533.25 821.448C1534.68 822.707 1535.4 824.616 1535.4 827.176V837H1530.72V834.856C1529.78 836.456 1528.04 837.256 1525.48 837.256C1524.15 837.256 1523 837.032 1522.02 836.584C1521.06 836.136 1520.32 835.517 1519.81 834.728C1519.3 833.939 1519.04 833.043 1519.04 832.04C1519.04 830.44 1519.64 829.181 1520.84 828.264C1522.05 827.347 1523.92 826.888 1526.44 826.888H1530.4C1530.4 825.8 1530.07 824.968 1529.41 824.392C1528.75 823.795 1527.76 823.496 1526.44 823.496C1525.52 823.496 1524.61 823.645 1523.72 823.944C1522.84 824.221 1522.09 824.605 1521.48 825.096L1519.68 821.608C1520.62 820.947 1521.74 820.435 1523.04 820.072C1524.37 819.709 1525.72 819.528 1527.11 819.528ZM1526.72 833.896C1527.58 833.896 1528.33 833.704 1529 833.32C1529.66 832.915 1530.13 832.328 1530.4 831.56V829.8H1526.98C1524.93 829.8 1523.91 830.472 1523.91 831.816C1523.91 832.456 1524.15 832.968 1524.64 833.352C1525.16 833.715 1525.85 833.896 1526.72 833.896Z" fill="black"/>
<path d="M1547.31 830.248L1544.91 832.616V837H1539.91V813.256H1544.91V826.696L1552.2 819.784H1558.15L1550.99 827.08L1558.79 837H1552.75L1547.31 830.248Z" fill="black"/>
<path d="M1577.15 828.456C1577.15 828.52 1577.12 828.968 1577.06 829.8H1564.03C1564.27 830.867 1564.82 831.709 1565.7 832.328C1566.57 832.947 1567.66 833.256 1568.96 833.256C1569.86 833.256 1570.65 833.128 1571.33 832.872C1572.03 832.595 1572.68 832.168 1573.28 831.592L1575.94 834.472C1574.32 836.328 1571.95 837.256 1568.83 837.256C1566.89 837.256 1565.17 836.883 1563.68 836.136C1562.19 835.368 1561.04 834.312 1560.22 832.968C1559.41 831.624 1559.01 830.099 1559.01 828.392C1559.01 826.707 1559.4 825.192 1560.19 823.848C1561 822.483 1562.1 821.427 1563.49 820.68C1564.9 819.912 1566.46 819.528 1568.19 819.528C1569.88 819.528 1571.4 819.891 1572.77 820.616C1574.13 821.341 1575.2 822.387 1575.97 823.752C1576.76 825.096 1577.15 826.664 1577.15 828.456ZM1568.22 823.304C1567.09 823.304 1566.14 823.624 1565.38 824.264C1564.61 824.904 1564.14 825.779 1563.97 826.888H1572.45C1572.28 825.8 1571.81 824.936 1571.04 824.296C1570.27 823.635 1569.33 823.304 1568.22 823.304Z" fill="black"/>
<path d="M1585.24 822.056C1585.84 821.224 1586.64 820.595 1587.64 820.168C1588.67 819.741 1589.84 819.528 1591.16 819.528V824.136C1590.61 824.093 1590.24 824.072 1590.04 824.072C1588.61 824.072 1587.49 824.477 1586.68 825.288C1585.87 826.077 1585.47 827.272 1585.47 828.872V837H1580.48V819.784H1585.24V822.056Z" fill="black"/>
</g>
<g opacity="0.3">
<rect x="1400" y="350" width="250" height="250" fill="#DCBFDC"/>
<path d="M1458.4 469.528C1461.07 469.528 1463.12 470.168 1464.55 471.448C1465.98 472.707 1466.69 474.616 1466.69 477.176V487H1462.02V484.856C1461.08 486.456 1459.33 487.256 1456.77 487.256C1455.45 487.256 1454.3 487.032 1453.32 486.584C1452.36 486.136 1451.62 485.517 1451.11 484.728C1450.6 483.939 1450.34 483.043 1450.34 482.04C1450.34 480.44 1450.94 479.181 1452.13 478.264C1453.35 477.347 1455.21 476.888 1457.73 476.888H1461.7C1461.7 475.8 1461.37 474.968 1460.71 474.392C1460.05 473.795 1459.05 473.496 1457.73 473.496C1456.81 473.496 1455.91 473.645 1455.01 473.944C1454.14 474.221 1453.39 474.605 1452.77 475.096L1450.98 471.608C1451.92 470.947 1453.04 470.435 1454.34 470.072C1455.66 469.709 1457.02 469.528 1458.4 469.528ZM1458.02 483.896C1458.87 483.896 1459.63 483.704 1460.29 483.32C1460.95 482.915 1461.42 482.328 1461.7 481.56V479.8H1458.28C1456.23 479.8 1455.2 480.472 1455.2 481.816C1455.2 482.456 1455.45 482.968 1455.94 483.352C1456.45 483.715 1457.15 483.896 1458.02 483.896Z" fill="black"/>
<path d="M1482.31 486.168C1481.82 486.531 1481.22 486.808 1480.49 487C1479.79 487.171 1479.04 487.256 1478.25 487.256C1476.2 487.256 1474.61 486.733 1473.48 485.688C1472.37 484.643 1471.82 483.107 1471.82 481.08V474.008H1469.16V470.168H1471.82V465.976H1476.81V470.168H1481.1V474.008H1476.81V481.016C1476.81 481.741 1476.99 482.307 1477.35 482.712C1477.74 483.096 1478.27 483.288 1478.95 483.288C1479.74 483.288 1480.42 483.075 1480.97 482.648L1482.31 486.168Z" fill="black"/>
<path d="M1495.85 486.168C1495.35 486.531 1494.75 486.808 1494.02 487C1493.32 487.171 1492.57 487.256 1491.78 487.256C1489.73 487.256 1488.14 486.733 1487.01 485.688C1485.9 484.643 1485.35 483.107 1485.35 481.08V474.008H1482.69V470.168H1485.35V465.976H1490.34V470.168H1494.63V474.008H1490.34V481.016C1490.34 481.741 1490.52 482.307 1490.89 482.712C1491.27 483.096 1491.8 483.288 1492.49 483.288C1493.27 483.288 1493.95 483.075 1494.5 482.648L1495.85 486.168Z" fill="black"/>
<path d="M1514.98 478.456C1514.98 478.52 1514.95 478.968 1514.88 479.8H1501.86C1502.1 480.867 1502.65 481.709 1503.52 482.328C1504.4 482.947 1505.49 483.256 1506.79 483.256C1507.68 483.256 1508.47 483.128 1509.16 482.872C1509.86 482.595 1510.51 482.168 1511.11 481.592L1513.76 484.472C1512.14 486.328 1509.78 487.256 1506.66 487.256C1504.72 487.256 1503 486.883 1501.51 486.136C1500.02 485.368 1498.86 484.312 1498.05 482.968C1497.24 481.624 1496.84 480.099 1496.84 478.392C1496.84 476.707 1497.23 475.192 1498.02 473.848C1498.83 472.483 1499.93 471.427 1501.32 470.68C1502.72 469.912 1504.29 469.528 1506.02 469.528C1507.71 469.528 1509.23 469.891 1510.6 470.616C1511.96 471.341 1513.03 472.387 1513.8 473.752C1514.59 475.096 1514.98 476.664 1514.98 478.456ZM1506.05 473.304C1504.92 473.304 1503.97 473.624 1503.2 474.264C1502.44 474.904 1501.97 475.779 1501.8 476.888H1510.28C1510.11 475.8 1509.64 474.936 1508.87 474.296C1508.1 473.635 1507.16 473.304 1506.05 473.304Z" fill="black"/>
<path d="M1528.77 469.528C1530.9 469.528 1532.62 470.168 1533.92 471.448C1535.24 472.728 1535.9 474.627 1535.9 477.144V487H1530.91V477.912C1530.91 476.547 1530.61 475.533 1530.02 474.872C1529.42 474.189 1528.55 473.848 1527.42 473.848C1526.17 473.848 1525.16 474.243 1524.42 475.032C1523.67 475.8 1523.3 476.952 1523.3 478.488V487H1518.3V469.784H1523.07V471.8C1523.73 471.075 1524.55 470.52 1525.54 470.136C1526.52 469.731 1527.59 469.528 1528.77 469.528Z" fill="black"/>
<path d="M1558.15 463.256V487H1553.38V485.016C1552.15 486.509 1550.36 487.256 1548.01 487.256C1546.39 487.256 1544.92 486.893 1543.59 486.168C1542.29 485.443 1541.27 484.408 1540.52 483.064C1539.77 481.72 1539.4 480.163 1539.4 478.392C1539.4 476.621 1539.77 475.064 1540.52 473.72C1541.27 472.376 1542.29 471.341 1543.59 470.616C1544.92 469.891 1546.39 469.528 1548.01 469.528C1550.21 469.528 1551.92 470.221 1553.16 471.608V463.256H1558.15ZM1548.87 483.16C1550.13 483.16 1551.18 482.733 1552.01 481.88C1552.84 481.005 1553.26 479.843 1553.26 478.392C1553.26 476.941 1552.84 475.789 1552.01 474.936C1551.18 474.061 1550.13 473.624 1548.87 473.624C1547.59 473.624 1546.54 474.061 1545.7 474.936C1544.87 475.789 1544.46 476.941 1544.46 478.392C1544.46 479.843 1544.87 481.005 1545.7 481.88C1546.54 482.733 1547.59 483.16 1548.87 483.16Z" fill="black"/>
<path d="M1579.64 478.456C1579.64 478.52 1579.6 478.968 1579.54 479.8H1566.52C1566.75 480.867 1567.31 481.709 1568.18 482.328C1569.06 482.947 1570.14 483.256 1571.44 483.256C1572.34 483.256 1573.13 483.128 1573.81 482.872C1574.52 482.595 1575.17 482.168 1575.76 481.592L1578.42 484.472C1576.8 486.328 1574.43 487.256 1571.32 487.256C1569.38 487.256 1567.66 486.883 1566.16 486.136C1564.67 485.368 1563.52 484.312 1562.71 482.968C1561.9 481.624 1561.49 480.099 1561.49 478.392C1561.49 476.707 1561.89 475.192 1562.68 473.848C1563.49 472.483 1564.59 471.427 1565.97 470.68C1567.38 469.912 1568.95 469.528 1570.68 469.528C1572.36 469.528 1573.89 469.891 1575.25 470.616C1576.62 471.341 1577.68 472.387 1578.45 473.752C1579.24 475.096 1579.64 476.664 1579.64 478.456ZM1570.71 473.304C1569.58 473.304 1568.63 473.624 1567.86 474.264C1567.09 474.904 1566.62 475.779 1566.45 476.888H1574.93C1574.76 475.8 1574.29 474.936 1573.52 474.296C1572.76 473.635 1571.82 473.304 1570.71 473.304Z" fill="black"/>
<path d="M1599.82 478.456C1599.82 478.52 1599.79 478.968 1599.73 479.8H1586.7C1586.94 480.867 1587.49 481.709 1588.37 482.328C1589.24 482.947 1590.33 483.256 1591.63 483.256C1592.53 483.256 1593.32 483.128 1594 482.872C1594.7 482.595 1595.35 482.168 1595.95 481.592L1598.61 484.472C1596.99 486.328 1594.62 487.256 1591.5 487.256C1589.56 487.256 1587.85 486.883 1586.35 486.136C1584.86 485.368 1583.71 484.312 1582.9 482.968C1582.09 481.624 1581.68 480.099 1581.68 478.392C1581.68 476.707 1582.07 475.192 1582.86 473.848C1583.67 472.483 1584.77 471.427 1586.16 470.68C1587.57 469.912 1589.14 469.528 1590.86 469.528C1592.55 469.528 1594.07 469.891 1595.44 470.616C1596.81 471.341 1597.87 472.387 1598.64 473.752C1599.43 475.096 1599.82 476.664 1599.82 478.456ZM1590.9 473.304C1589.77 473.304 1588.82 473.624 1588.05 474.264C1587.28 474.904 1586.81 475.779 1586.64 476.888H1595.12C1594.95 475.8 1594.48 474.936 1593.71 474.296C1592.94 473.635 1592.01 473.304 1590.9 473.304Z" fill="black"/>
</g>
<g opacity="0.3">
<rect x="1400" width="250" height="250" fill="#DCBFDC"/>
<path d="M1455.82 137.256C1454.01 137.256 1452.38 136.883 1450.93 136.136C1449.5 135.368 1448.38 134.312 1447.57 132.968C1446.76 131.624 1446.35 130.099 1446.35 128.392C1446.35 126.686 1446.76 125.16 1447.57 123.816C1448.38 122.472 1449.5 121.427 1450.93 120.68C1452.38 119.912 1454.01 119.528 1455.82 119.528C1457.64 119.528 1459.26 119.912 1460.69 120.68C1462.12 121.427 1463.24 122.472 1464.05 123.816C1464.86 125.16 1465.26 126.686 1465.26 128.392C1465.26 130.099 1464.86 131.624 1464.05 132.968C1463.24 134.312 1462.12 135.368 1460.69 136.136C1459.26 136.883 1457.64 137.256 1455.82 137.256ZM1455.82 133.16C1457.1 133.16 1458.15 132.734 1458.96 131.88C1459.79 131.006 1460.21 129.843 1460.21 128.392C1460.21 126.942 1459.79 125.79 1458.96 124.936C1458.15 124.062 1457.1 123.624 1455.82 123.624C1454.54 123.624 1453.49 124.062 1452.66 124.936C1451.82 125.79 1451.41 126.942 1451.41 128.392C1451.41 129.843 1451.82 131.006 1452.66 131.88C1453.49 132.734 1454.54 133.16 1455.82 133.16Z" fill="black"/>
<path d="M1473.37 122.056C1473.97 121.224 1474.77 120.595 1475.77 120.168C1476.79 119.742 1477.97 119.528 1479.29 119.528V124.136C1478.73 124.094 1478.36 124.072 1478.17 124.072C1476.74 124.072 1475.62 124.478 1474.81 125.288C1474 126.078 1473.59 127.272 1473.59 128.872V137H1468.6V119.784H1473.37V122.056Z" fill="black"/>
<path d="M1499.86 119.784V134.12C1499.86 137.278 1499.04 139.624 1497.4 141.16C1495.75 142.696 1493.35 143.464 1490.2 143.464C1488.53 143.464 1486.95 143.262 1485.46 142.856C1483.97 142.451 1482.73 141.864 1481.75 141.096L1483.73 137.512C1484.46 138.11 1485.38 138.579 1486.48 138.92C1487.59 139.283 1488.7 139.464 1489.81 139.464C1491.54 139.464 1492.81 139.07 1493.62 138.28C1494.45 137.512 1494.87 136.339 1494.87 134.76V134.024C1493.57 135.454 1491.75 136.168 1489.43 136.168C1487.85 136.168 1486.4 135.827 1485.08 135.144C1483.78 134.44 1482.74 133.459 1481.97 132.2C1481.2 130.942 1480.82 129.491 1480.82 127.848C1480.82 126.206 1481.2 124.755 1481.97 123.496C1482.74 122.238 1483.78 121.267 1485.08 120.584C1486.4 119.88 1487.85 119.528 1489.43 119.528C1491.92 119.528 1493.82 120.35 1495.12 121.992V119.784H1499.86ZM1490.42 132.072C1491.74 132.072 1492.82 131.688 1493.65 130.92C1494.51 130.131 1494.93 129.107 1494.93 127.848C1494.93 126.59 1494.51 125.576 1493.65 124.808C1492.82 124.019 1491.74 123.624 1490.42 123.624C1489.1 123.624 1488.01 124.019 1487.16 124.808C1486.3 125.576 1485.88 126.59 1485.88 127.848C1485.88 129.107 1486.3 130.131 1487.16 130.92C1488.01 131.688 1489.1 132.072 1490.42 132.072Z" fill="black"/>
<path d="M1511.45 119.528C1514.12 119.528 1516.17 120.168 1517.6 121.448C1519.02 122.707 1519.74 124.616 1519.74 127.176V137H1515.07V134.856C1514.13 136.456 1512.38 137.256 1509.82 137.256C1508.5 137.256 1507.34 137.032 1506.36 136.584C1505.4 136.136 1504.67 135.518 1504.16 134.728C1503.64 133.939 1503.39 133.043 1503.39 132.04C1503.39 130.44 1503.98 129.182 1505.18 128.264C1506.4 127.347 1508.26 126.888 1510.78 126.888H1514.75C1514.75 125.8 1514.42 124.968 1513.76 124.392C1513.09 123.795 1512.1 123.496 1510.78 123.496C1509.86 123.496 1508.96 123.646 1508.06 123.944C1507.18 124.222 1506.44 124.606 1505.82 125.096L1504.03 121.608C1504.97 120.947 1506.09 120.435 1507.39 120.072C1508.71 119.71 1510.06 119.528 1511.45 119.528ZM1511.07 133.896C1511.92 133.896 1512.68 133.704 1513.34 133.32C1514 132.915 1514.47 132.328 1514.75 131.56V129.8H1511.32C1509.28 129.8 1508.25 130.472 1508.25 131.816C1508.25 132.456 1508.5 132.968 1508.99 133.352C1509.5 133.715 1510.19 133.896 1511.07 133.896Z" fill="black"/>
<path d="M1534.72 119.528C1536.85 119.528 1538.57 120.168 1539.87 121.448C1541.2 122.728 1541.86 124.627 1541.86 127.144V137H1536.87V127.912C1536.87 126.547 1536.57 125.534 1535.97 124.872C1535.37 124.19 1534.51 123.848 1533.38 123.848C1532.12 123.848 1531.12 124.243 1530.37 125.032C1529.62 125.8 1529.25 126.952 1529.25 128.488V137H1524.26V119.784H1529.03V121.8C1529.69 121.075 1530.51 120.52 1531.49 120.136C1532.47 119.731 1533.55 119.528 1534.72 119.528Z" fill="black"/>
<path d="M1546.38 119.784H1551.37V137H1546.38V119.784ZM1548.88 117.384C1547.96 117.384 1547.21 117.118 1546.64 116.584C1546.06 116.051 1545.77 115.39 1545.77 114.6C1545.77 113.811 1546.06 113.15 1546.64 112.616C1547.21 112.083 1547.96 111.816 1548.88 111.816C1549.8 111.816 1550.54 112.072 1551.12 112.584C1551.69 113.096 1551.98 113.736 1551.98 114.504C1551.98 115.336 1551.69 116.03 1551.12 116.584C1550.54 117.118 1549.8 117.384 1548.88 117.384Z" fill="black"/>
<path d="M1561.8 137.256C1560.37 137.256 1558.97 137.086 1557.61 136.744C1556.24 136.382 1555.15 135.934 1554.34 135.4L1556.01 131.816C1556.78 132.307 1557.7 132.712 1558.79 133.032C1559.88 133.331 1560.95 133.48 1561.99 133.48C1564.1 133.48 1565.16 132.958 1565.16 131.912C1565.16 131.422 1564.87 131.07 1564.3 130.856C1563.72 130.643 1562.83 130.462 1561.64 130.312C1560.23 130.099 1559.07 129.854 1558.15 129.576C1557.23 129.299 1556.43 128.808 1555.75 128.104C1555.09 127.4 1554.76 126.398 1554.76 125.096C1554.76 124.008 1555.07 123.048 1555.69 122.216C1556.33 121.363 1557.24 120.702 1558.44 120.232C1559.66 119.763 1561.08 119.528 1562.73 119.528C1563.94 119.528 1565.15 119.667 1566.34 119.944C1567.56 120.2 1568.56 120.563 1569.35 121.032L1567.69 124.584C1566.17 123.731 1564.52 123.304 1562.73 123.304C1561.66 123.304 1560.86 123.454 1560.33 123.752C1559.79 124.051 1559.53 124.435 1559.53 124.904C1559.53 125.438 1559.82 125.811 1560.39 126.024C1560.97 126.238 1561.88 126.44 1563.14 126.632C1564.55 126.867 1565.7 127.123 1566.6 127.4C1567.5 127.656 1568.27 128.136 1568.94 128.84C1569.6 129.544 1569.93 130.526 1569.93 131.784C1569.93 132.851 1569.61 133.8 1568.97 134.632C1568.33 135.464 1567.39 136.115 1566.15 136.584C1564.94 137.032 1563.48 137.256 1561.8 137.256Z" fill="black"/>
<path d="M1589.87 128.456C1589.87 128.52 1589.84 128.968 1589.78 129.8H1576.75C1576.99 130.867 1577.54 131.71 1578.42 132.328C1579.29 132.947 1580.38 133.256 1581.68 133.256C1582.58 133.256 1583.36 133.128 1584.05 132.872C1584.75 132.595 1585.4 132.168 1586 131.592L1588.66 134.472C1587.03 136.328 1584.67 137.256 1581.55 137.256C1579.61 137.256 1577.89 136.883 1576.4 136.136C1574.91 135.368 1573.75 134.312 1572.94 132.968C1572.13 131.624 1571.73 130.099 1571.73 128.392C1571.73 126.707 1572.12 125.192 1572.91 123.848C1573.72 122.483 1574.82 121.427 1576.21 120.68C1577.62 119.912 1579.18 119.528 1580.91 119.528C1582.6 119.528 1584.12 119.891 1585.49 120.616C1586.85 121.342 1587.92 122.387 1588.69 123.752C1589.48 125.096 1589.87 126.664 1589.87 128.456ZM1580.94 123.304C1579.81 123.304 1578.86 123.624 1578.1 124.264C1577.33 124.904 1576.86 125.779 1576.69 126.888H1585.17C1585 125.8 1584.53 124.936 1583.76 124.296C1582.99 123.635 1582.05 123.304 1580.94 123.304Z" fill="black"/>
<path d="M1597.96 122.056C1598.56 121.224 1599.36 120.595 1600.36 120.168C1601.39 119.742 1602.56 119.528 1603.88 119.528V124.136C1603.33 124.094 1602.95 124.072 1602.76 124.072C1601.33 124.072 1600.21 124.478 1599.4 125.288C1598.59 126.078 1598.19 127.272 1598.19 128.872V137H1593.19V119.784H1597.96V122.056Z" fill="black"/>
</g>
<line x1="250" y1="474" x2="350" y2="474" stroke="#DCBFDC" stroke-width="4"/>
<line x1="250" y1="135" x2="350" y2="135" stroke="#DCBFDC" stroke-width="4"/>
<line opacity="0.3" x1="1300" y1="135" x2="1400" y2="135" stroke="#DCBFDC" stroke-width="4"/>
<line x1="250" y1="843" x2="350" y2="843" stroke="#DCBFDC" stroke-width="4"/>
<line opacity="0.3" x1="1300" y1="474" x2="1400" y2="474" stroke="#DCBFDC" stroke-width="4"/>
<line opacity="0.3" x1="1300" y1="843" x2="1400" y2="843" stroke="#DCBFDC" stroke-width="4"/>
<path d="M123 250L111.453 270L134.547 270L123 250ZM125 350L125 345.833L121 345.833L121 350L125 350ZM125 337.5L125 329.167L121 329.167L121 337.5L125 337.5ZM125 320.833L125 312.5L121 312.5L121 320.833L125 320.833ZM125 304.167L125 295.833L121 295.833L121 304.167L125 304.167ZM125 287.5L125 279.167L121 279.167L121 287.5L125 287.5ZM125 270.833L125 262.5L121 262.5L121 270.833L125 270.833Z" fill="#DCBFDC"/>
<rect y="700" width="250" height="250" fill="#DCBFDC"/>
<path d="M82.6209 837.256C80.8076 837.256 79.1756 836.883 77.7249 836.136C76.2956 835.368 75.1756 834.312 74.3649 832.968C73.5543 831.624 73.1489 830.099 73.1489 828.392C73.1489 826.686 73.5543 825.16 74.3649 823.816C75.1756 822.472 76.2956 821.427 77.7249 820.68C79.1756 819.912 80.8076 819.528 82.6209 819.528C84.4343 819.528 86.0556 819.912 87.4849 820.68C88.9143 821.427 90.0343 822.472 90.8449 823.816C91.6556 825.16 92.0609 826.686 92.0609 828.392C92.0609 830.099 91.6556 831.624 90.8449 832.968C90.0343 834.312 88.9143 835.368 87.4849 836.136C86.0556 836.883 84.4343 837.256 82.6209 837.256ZM82.6209 833.16C83.9009 833.16 84.9463 832.734 85.7569 831.88C86.5889 831.006 87.0049 829.843 87.0049 828.392C87.0049 826.942 86.5889 825.79 85.7569 824.936C84.9463 824.062 83.9009 823.624 82.6209 823.624C81.3409 823.624 80.2849 824.062 79.4529 824.936C78.6209 825.79 78.2049 826.942 78.2049 828.392C78.2049 829.843 78.6209 831.006 79.4529 831.88C80.2849 832.734 81.3409 833.16 82.6209 833.16Z" fill="black"/>
<path d="M122.577 819.784L116.337 837H111.537L107.665 826.312L103.665 837H98.8649L92.6569 819.784H97.3609L101.425 831.432L105.649 819.784H109.873L113.969 831.432L118.161 819.784H122.577Z" fill="black"/>
<path d="M135.362 819.528C137.495 819.528 139.212 820.168 140.514 821.448C141.836 822.728 142.498 824.627 142.498 827.144V837H137.506V827.912C137.506 826.547 137.207 825.534 136.61 824.872C136.012 824.19 135.148 823.848 134.018 823.848C132.759 823.848 131.756 824.243 131.01 825.032C130.263 825.8 129.89 826.952 129.89 828.488V837H124.898V819.784H129.666V821.8C130.327 821.075 131.148 820.52 132.13 820.136C133.111 819.731 134.188 819.528 135.362 819.528Z" fill="black"/>
<path d="M164.074 828.456C164.074 828.52 164.042 828.968 163.978 829.8H150.954C151.189 830.867 151.744 831.71 152.618 832.328C153.493 832.947 154.581 833.256 155.882 833.256C156.778 833.256 157.568 833.128 158.25 832.872C158.954 832.595 159.605 832.168 160.202 831.592L162.858 834.472C161.237 836.328 158.869 837.256 155.754 837.256C153.813 837.256 152.096 836.883 150.602 836.136C149.109 835.368 147.957 834.312 147.146 832.968C146.336 831.624 145.93 830.099 145.93 828.392C145.93 826.707 146.325 825.192 147.114 823.848C147.925 822.483 149.024 821.427 150.41 820.68C151.818 819.912 153.386 819.528 155.114 819.528C156.8 819.528 158.325 819.891 159.69 820.616C161.056 821.342 162.122 822.387 162.89 823.752C163.68 825.096 164.074 826.664 164.074 828.456ZM155.146 823.304C154.016 823.304 153.066 823.624 152.298 824.264C151.53 824.904 151.061 825.779 150.89 826.888H159.37C159.2 825.8 158.73 824.936 157.962 824.296C157.194 823.635 156.256 823.304 155.146 823.304Z" fill="black"/>
<path d="M172.166 822.056C172.763 821.224 173.563 820.595 174.566 820.168C175.59 819.742 176.763 819.528 178.086 819.528V824.136C177.531 824.094 177.158 824.072 176.966 824.072C175.536 824.072 174.416 824.478 173.606 825.288C172.795 826.078 172.39 827.272 172.39 828.872V837H167.398V819.784H172.166V822.056Z" fill="black"/>
<path d="M123 600L111.453 620L134.547 620L123 600ZM125 700L125 695.833L121 695.833L121 700L125 700ZM125 687.5L125 679.167L121 679.167L121 687.5L125 687.5ZM125 670.833L125 662.5L121 662.5L121 670.833L125 670.833ZM125 654.167L125 645.833L121 645.833L121 654.167L125 654.167ZM125 637.5L125 629.167L121 629.167L121 637.5L125 637.5ZM125 620.833L125 612.5L121 612.5L121 620.833L125 620.833Z" fill="#DCBFDC"/>
<path opacity="0.3" d="M1525 600L1513.45 620L1536.55 620L1525 600ZM1527 700L1527 695.833L1523 695.833L1523 700L1527 700ZM1527 687.5L1527 679.167L1523 679.167L1523 687.5L1527 687.5ZM1527 670.833L1527 662.5L1523 662.5L1523 670.833L1527 670.833ZM1527 654.167L1527 645.833L1523 645.833L1523 654.167L1527 654.167ZM1527 637.5L1527 629.167L1523 629.167L1523 637.5L1527 637.5ZM1527 620.833L1527 612.5L1523 612.5L1523 620.833L1527 620.833Z" fill="#DCBFDC"/>
<path opacity="0.3" d="M1525 350L1513.45 330L1536.55 330L1525 350ZM1527 250L1527 254.167L1523 254.167L1523 250L1527 250ZM1527 262.5L1527 270.833L1523 270.833L1523 262.5L1527 262.5ZM1527 279.167L1527 287.5L1523 287.5L1523 279.167L1527 279.167ZM1527 295.833L1527 304.167L1523 304.167L1523 295.833L1527 295.833ZM1527 312.5L1527 320.833L1523 320.833L1523 312.5L1527 312.5ZM1527 329.167L1527 337.5L1523 337.5L1523 329.167L1527 329.167Z" fill="#DCBFDC"/>
<line x1="700" y1="477" x2="600" y2="477" stroke="#C594C5" stroke-width="4"/>
<line opacity="0.3" x1="1050" y1="477" x2="950" y2="477" stroke="#C594C5" stroke-width="4"/>
</svg>
