<svg width="950" height="602" viewBox="0 0 950 602" fill="none" xmlns="http://www.w3.org/2000/svg">
<rect width="250" height="600" fill="#C594C5"/>
<path d="M52.168 307.256V331H47.4V329.016C46.1627 330.51 44.3707 331.256 42.024 331.256C40.4027 331.256 38.9307 330.894 37.608 330.168C36.3067 329.443 35.2827 328.408 34.536 327.064C33.7893 325.72 33.416 324.163 33.416 322.392C33.416 320.622 33.7893 319.064 34.536 317.72C35.2827 316.376 36.3067 315.342 37.608 314.616C38.9307 313.891 40.4027 313.528 42.024 313.528C44.2213 313.528 45.9387 314.222 47.176 315.608V307.256H52.168ZM42.888 327.16C44.1467 327.16 45.192 326.734 46.024 325.88C46.856 325.006 47.272 323.843 47.272 322.392C47.272 320.942 46.856 319.79 46.024 318.936C45.192 318.062 44.1467 317.624 42.888 317.624C41.608 317.624 40.552 318.062 39.72 318.936C38.888 319.79 38.472 320.942 38.472 322.392C38.472 323.843 38.888 325.006 39.72 325.88C40.552 326.734 41.608 327.16 42.888 327.16Z" fill="black"/>
<path d="M56.7883 313.784H61.7803V331H56.7883V313.784ZM59.2843 311.384C58.3669 311.384 57.6203 311.118 57.0443 310.584C56.4683 310.051 56.1803 309.39 56.1803 308.6C56.1803 307.811 56.4683 307.15 57.0443 306.616C57.6203 306.083 58.3669 305.816 59.2843 305.816C60.2016 305.816 60.9483 306.072 61.5243 306.584C62.1003 307.096 62.3883 307.736 62.3883 308.504C62.3883 309.336 62.1003 310.03 61.5243 310.584C60.9483 311.118 60.2016 311.384 59.2843 311.384Z" fill="black"/>
<path d="M74.6053 331.256C72.7919 331.256 71.1599 330.883 69.7093 330.136C68.2799 329.368 67.1599 328.312 66.3493 326.968C65.5386 325.624 65.1333 324.099 65.1333 322.392C65.1333 320.686 65.5386 319.16 66.3493 317.816C67.1599 316.472 68.2799 315.427 69.7093 314.68C71.1599 313.912 72.7919 313.528 74.6053 313.528C76.4186 313.528 78.0399 313.912 79.4693 314.68C80.8986 315.427 82.0186 316.472 82.8293 317.816C83.6399 319.16 84.0453 320.686 84.0453 322.392C84.0453 324.099 83.6399 325.624 82.8293 326.968C82.0186 328.312 80.8986 329.368 79.4693 330.136C78.0399 330.883 76.4186 331.256 74.6053 331.256ZM74.6053 327.16C75.8853 327.16 76.9306 326.734 77.7413 325.88C78.5733 325.006 78.9893 323.843 78.9893 322.392C78.9893 320.942 78.5733 319.79 77.7413 318.936C76.9306 318.062 75.8853 317.624 74.6053 317.624C73.3253 317.624 72.2693 318.062 71.4373 318.936C70.6053 319.79 70.1893 320.942 70.1893 322.392C70.1893 323.843 70.6053 325.006 71.4373 325.88C72.2693 326.734 73.3253 327.16 74.6053 327.16Z" fill="black"/>
<path d="M92.15 316.056C92.7473 315.224 93.5473 314.595 94.55 314.168C95.574 313.742 96.7474 313.528 98.07 313.528V318.136C97.5154 318.094 97.142 318.072 96.95 318.072C95.5207 318.072 94.4007 318.478 93.59 319.288C92.7793 320.078 92.374 321.272 92.374 322.872V331H87.382V313.784H92.15V316.056Z" fill="black"/>
<path d="M107.889 313.528C110.555 313.528 112.603 314.168 114.033 315.448C115.462 316.707 116.177 318.616 116.177 321.176V331H111.505V328.856C110.566 330.456 108.817 331.256 106.257 331.256C104.934 331.256 103.782 331.032 102.801 330.584C101.841 330.136 101.105 329.518 100.593 328.728C100.081 327.939 99.8245 327.043 99.8245 326.04C99.8245 324.44 100.422 323.182 101.617 322.264C102.833 321.347 104.699 320.888 107.217 320.888H111.185C111.185 319.8 110.854 318.968 110.193 318.392C109.531 317.795 108.539 317.496 107.217 317.496C106.299 317.496 105.393 317.646 104.497 317.944C103.622 318.222 102.875 318.606 102.257 319.096L100.465 315.608C101.403 314.947 102.523 314.435 103.825 314.072C105.147 313.71 106.502 313.528 107.889 313.528ZM107.505 327.896C108.358 327.896 109.115 327.704 109.777 327.32C110.438 326.915 110.907 326.328 111.185 325.56V323.8H107.761C105.713 323.8 104.689 324.472 104.689 325.816C104.689 326.456 104.934 326.968 105.425 327.352C105.937 327.715 106.63 327.896 107.505 327.896Z" fill="black"/>
<path d="M142.743 313.528C144.897 313.528 146.604 314.168 147.863 315.448C149.143 316.707 149.783 318.606 149.783 321.144V331H144.791V321.912C144.791 320.547 144.503 319.534 143.927 318.872C143.372 318.19 142.572 317.848 141.527 317.848C140.353 317.848 139.425 318.232 138.743 319C138.06 319.747 137.719 320.867 137.719 322.36V331H132.727V321.912C132.727 319.203 131.639 317.848 129.463 317.848C128.311 317.848 127.393 318.232 126.711 319C126.028 319.747 125.687 320.867 125.687 322.36V331H120.695V313.784H125.463V315.768C126.103 315.043 126.881 314.488 127.799 314.104C128.737 313.72 129.761 313.528 130.871 313.528C132.087 313.528 133.185 313.774 134.167 314.264C135.148 314.734 135.937 315.427 136.535 316.344C137.239 315.448 138.124 314.755 139.191 314.264C140.279 313.774 141.463 313.528 142.743 313.528Z" fill="black"/>
<path d="M161.201 313.528C163.868 313.528 165.916 314.168 167.345 315.448C168.774 316.707 169.489 318.616 169.489 321.176V331H164.817V328.856C163.878 330.456 162.129 331.256 159.569 331.256C158.246 331.256 157.094 331.032 156.113 330.584C155.153 330.136 154.417 329.518 153.905 328.728C153.393 327.939 153.137 327.043 153.137 326.04C153.137 324.44 153.734 323.182 154.929 322.264C156.145 321.347 158.012 320.888 160.529 320.888H164.497C164.497 319.8 164.166 318.968 163.505 318.392C162.844 317.795 161.852 317.496 160.529 317.496C159.612 317.496 158.705 317.646 157.809 317.944C156.934 318.222 156.188 318.606 155.569 319.096L153.777 315.608C154.716 314.947 155.836 314.435 157.137 314.072C158.46 313.71 159.814 313.528 161.201 313.528ZM160.817 327.896C161.67 327.896 162.428 327.704 163.089 327.32C163.75 326.915 164.22 326.328 164.497 325.56V323.8H161.073C159.025 323.8 158.001 324.472 158.001 325.816C158.001 326.456 158.246 326.968 158.737 327.352C159.249 327.715 159.942 327.896 160.817 327.896Z" fill="black"/>
<path d="M175.895 331.256C175.02 331.256 174.284 330.958 173.687 330.36C173.09 329.763 172.791 329.016 172.791 328.12C172.791 327.203 173.09 326.467 173.687 325.912C174.284 325.336 175.02 325.048 175.895 325.048C176.77 325.048 177.506 325.336 178.103 325.912C178.7 326.467 178.999 327.203 178.999 328.12C178.999 329.016 178.7 329.763 178.103 330.36C177.506 330.958 176.77 331.256 175.895 331.256Z" fill="black"/>
<path d="M182.382 313.784H187.374V331H182.382V313.784ZM184.878 311.384C183.961 311.384 183.214 311.118 182.638 310.584C182.062 310.051 181.774 309.39 181.774 308.6C181.774 307.811 182.062 307.15 182.638 306.616C183.214 306.083 183.961 305.816 184.878 305.816C185.795 305.816 186.542 306.072 187.118 306.584C187.694 307.096 187.982 307.736 187.982 308.504C187.982 309.336 187.694 310.03 187.118 310.584C186.542 311.118 185.795 311.384 184.878 311.384Z" fill="black"/>
<path d="M200.199 331.256C198.386 331.256 196.754 330.883 195.303 330.136C193.874 329.368 192.754 328.312 191.943 326.968C191.132 325.624 190.727 324.099 190.727 322.392C190.727 320.686 191.132 319.16 191.943 317.816C192.754 316.472 193.874 315.427 195.303 314.68C196.754 313.912 198.386 313.528 200.199 313.528C202.012 313.528 203.634 313.912 205.063 314.68C206.492 315.427 207.612 316.472 208.423 317.816C209.234 319.16 209.639 320.686 209.639 322.392C209.639 324.099 209.234 325.624 208.423 326.968C207.612 328.312 206.492 329.368 205.063 330.136C203.634 330.883 202.012 331.256 200.199 331.256ZM200.199 327.16C201.479 327.16 202.524 326.734 203.335 325.88C204.167 325.006 204.583 323.843 204.583 322.392C204.583 320.942 204.167 319.79 203.335 318.936C202.524 318.062 201.479 317.624 200.199 317.624C198.919 317.624 197.863 318.062 197.031 318.936C196.199 319.79 195.783 320.942 195.783 322.392C195.783 323.843 196.199 325.006 197.031 325.88C197.863 326.734 198.919 327.16 200.199 327.16Z" fill="black"/>
<rect x="700" y="350" width="250" height="250" fill="#DCBFDC"/>
<path d="M793.621 478.456C793.621 478.52 793.589 478.968 793.525 479.8H780.501C780.736 480.867 781.29 481.71 782.165 482.328C783.04 482.947 784.128 483.256 785.429 483.256C786.325 483.256 787.114 483.128 787.797 482.872C788.501 482.595 789.152 482.168 789.749 481.592L792.405 484.472C790.784 486.328 788.416 487.256 785.301 487.256C783.36 487.256 781.642 486.883 780.149 486.136C778.656 485.368 777.504 484.312 776.693 482.968C775.882 481.624 775.477 480.099 775.477 478.392C775.477 476.707 775.872 475.192 776.661 473.848C777.472 472.483 778.57 471.427 779.957 470.68C781.365 469.912 782.933 469.528 784.661 469.528C786.346 469.528 787.872 469.891 789.237 470.616C790.602 471.342 791.669 472.387 792.437 473.752C793.226 475.096 793.621 476.664 793.621 478.456ZM784.693 473.304C783.562 473.304 782.613 473.624 781.845 474.264C781.077 474.904 780.608 475.779 780.437 476.888H788.917C788.746 475.8 788.277 474.936 787.509 474.296C786.741 473.635 785.802 473.304 784.693 473.304Z" fill="black"/>
<path d="M814.481 463.256V487H809.713V485.016C808.475 486.51 806.683 487.256 804.337 487.256C802.715 487.256 801.243 486.894 799.921 486.168C798.619 485.443 797.595 484.408 796.849 483.064C796.102 481.72 795.729 480.163 795.729 478.392C795.729 476.622 796.102 475.064 796.849 473.72C797.595 472.376 798.619 471.342 799.921 470.616C801.243 469.891 802.715 469.528 804.337 469.528C806.534 469.528 808.251 470.222 809.489 471.608V463.256H814.481ZM805.201 483.16C806.459 483.16 807.505 482.734 808.337 481.88C809.169 481.006 809.585 479.843 809.585 478.392C809.585 476.942 809.169 475.79 808.337 474.936C807.505 474.062 806.459 473.624 805.201 473.624C803.921 473.624 802.865 474.062 802.033 474.936C801.201 475.79 800.785 476.942 800.785 478.392C800.785 479.843 801.201 481.006 802.033 481.88C802.865 482.734 803.921 483.16 805.201 483.16Z" fill="black"/>
<path d="M819.101 469.784H824.093V487H819.101V469.784ZM821.597 467.384C820.679 467.384 819.933 467.118 819.357 466.584C818.781 466.051 818.493 465.39 818.493 464.6C818.493 463.811 818.781 463.15 819.357 462.616C819.933 462.083 820.679 461.816 821.597 461.816C822.514 461.816 823.261 462.072 823.837 462.584C824.413 463.096 824.701 463.736 824.701 464.504C824.701 465.336 824.413 466.03 823.837 466.584C823.261 467.118 822.514 467.384 821.597 467.384Z" fill="black"/>
<path d="M839.83 486.168C839.339 486.531 838.731 486.808 838.006 487C837.302 487.171 836.555 487.256 835.766 487.256C833.718 487.256 832.128 486.734 830.998 485.688C829.888 484.643 829.334 483.107 829.334 481.08V474.008H826.678V470.168H829.334V465.976H834.326V470.168H838.614V474.008H834.326V481.016C834.326 481.742 834.507 482.307 834.87 482.712C835.254 483.096 835.787 483.288 836.47 483.288C837.259 483.288 837.931 483.075 838.486 482.648L839.83 486.168Z" fill="black"/>
<path d="M850.293 487.256C848.479 487.256 846.847 486.883 845.397 486.136C843.967 485.368 842.847 484.312 842.037 482.968C841.226 481.624 840.821 480.099 840.821 478.392C840.821 476.686 841.226 475.16 842.037 473.816C842.847 472.472 843.967 471.427 845.397 470.68C846.847 469.912 848.479 469.528 850.293 469.528C852.106 469.528 853.727 469.912 855.157 470.68C856.586 471.427 857.706 472.472 858.517 473.816C859.327 475.16 859.733 476.686 859.733 478.392C859.733 480.099 859.327 481.624 858.517 482.968C857.706 484.312 856.586 485.368 855.157 486.136C853.727 486.883 852.106 487.256 850.293 487.256ZM850.293 483.16C851.573 483.16 852.618 482.734 853.429 481.88C854.261 481.006 854.677 479.843 854.677 478.392C854.677 476.942 854.261 475.79 853.429 474.936C852.618 474.062 851.573 473.624 850.293 473.624C849.013 473.624 847.957 474.062 847.125 474.936C846.293 475.79 845.877 476.942 845.877 478.392C845.877 479.843 846.293 481.006 847.125 481.88C847.957 482.734 849.013 483.16 850.293 483.16Z" fill="black"/>
<path d="M867.838 472.056C868.435 471.224 869.235 470.595 870.238 470.168C871.262 469.742 872.435 469.528 873.758 469.528V474.136C873.203 474.094 872.83 474.072 872.638 474.072C871.208 474.072 870.088 474.478 869.278 475.288C868.467 476.078 868.062 477.272 868.062 478.872V487H863.07V469.784H867.838V472.056Z" fill="black"/>
<rect x="700" width="250" height="250" fill="#DCBFDC"/>
<path d="M787.845 119.784L780.581 137H775.429L768.197 119.784H773.349L778.117 131.496L783.045 119.784H787.845Z" fill="black"/>
<path d="M789.882 119.784H794.874V137H789.882V119.784ZM792.378 117.384C791.461 117.384 790.714 117.118 790.138 116.584C789.562 116.051 789.274 115.39 789.274 114.6C789.274 113.811 789.562 113.15 790.138 112.616C790.714 112.083 791.461 111.816 792.378 111.816C793.295 111.816 794.042 112.072 794.618 112.584C795.194 113.096 795.482 113.736 795.482 114.504C795.482 115.336 795.194 116.03 794.618 116.584C794.042 117.118 793.295 117.384 792.378 117.384Z" fill="black"/>
<path d="M816.371 128.456C816.371 128.52 816.339 128.968 816.275 129.8H803.251C803.486 130.867 804.04 131.71 804.915 132.328C805.79 132.947 806.878 133.256 808.179 133.256C809.075 133.256 809.864 133.128 810.547 132.872C811.251 132.595 811.902 132.168 812.499 131.592L815.155 134.472C813.534 136.328 811.166 137.256 808.051 137.256C806.11 137.256 804.392 136.883 802.899 136.136C801.406 135.368 800.254 134.312 799.443 132.968C798.632 131.624 798.227 130.099 798.227 128.392C798.227 126.707 798.622 125.192 799.411 123.848C800.222 122.483 801.32 121.427 802.707 120.68C804.115 119.912 805.683 119.528 807.411 119.528C809.096 119.528 810.622 119.891 811.987 120.616C813.352 121.342 814.419 122.387 815.187 123.752C815.976 125.096 816.371 126.664 816.371 128.456ZM807.443 123.304C806.312 123.304 805.363 123.624 804.595 124.264C803.827 124.904 803.358 125.779 803.187 126.888H811.667C811.496 125.8 811.027 124.936 810.259 124.296C809.491 123.635 808.552 123.304 807.443 123.304Z" fill="black"/>
<path d="M847.03 119.784L840.79 137H835.99L832.118 126.312L828.118 137H823.318L817.11 119.784H821.814L825.878 131.432L830.102 119.784H834.326L838.422 131.432L842.614 119.784H847.03Z" fill="black"/>
<path d="M865.746 128.456C865.746 128.52 865.714 128.968 865.65 129.8H852.626C852.861 130.867 853.415 131.71 854.29 132.328C855.165 132.947 856.253 133.256 857.554 133.256C858.45 133.256 859.239 133.128 859.922 132.872C860.626 132.595 861.277 132.168 861.874 131.592L864.53 134.472C862.909 136.328 860.541 137.256 857.426 137.256C855.485 137.256 853.767 136.883 852.274 136.136C850.781 135.368 849.629 134.312 848.818 132.968C848.007 131.624 847.602 130.099 847.602 128.392C847.602 126.707 847.997 125.192 848.786 123.848C849.597 122.483 850.695 121.427 852.082 120.68C853.49 119.912 855.058 119.528 856.786 119.528C858.471 119.528 859.997 119.891 861.362 120.616C862.727 121.342 863.794 122.387 864.562 123.752C865.351 125.096 865.746 126.664 865.746 128.456ZM856.818 123.304C855.687 123.304 854.738 123.624 853.97 124.264C853.202 124.904 852.733 125.779 852.562 126.888H861.042C860.871 125.8 860.402 124.936 859.634 124.296C858.866 123.635 857.927 123.304 856.818 123.304Z" fill="black"/>
<path d="M873.838 122.056C874.435 121.224 875.235 120.595 876.238 120.168C877.262 119.742 878.435 119.528 879.758 119.528V124.136C879.203 124.094 878.83 124.072 878.638 124.072C877.208 124.072 876.088 124.478 875.278 125.288C874.467 126.078 874.062 127.272 874.062 128.872V137H869.07V119.784H873.838V122.056Z" fill="black"/>
<line x1="475" y1="124" x2="700" y2="124" stroke="#DCBFDC" stroke-width="4"/>
<line x1="600" y1="484" x2="700" y2="484" stroke="#DCBFDC" stroke-width="4"/>
<rect x="349" y="354" width="246" height="246" fill="white" stroke="#C594C5" stroke-width="4"/>
<path d="M399.174 489.256C397.745 489.256 396.347 489.086 394.982 488.744C393.617 488.382 392.529 487.934 391.718 487.4L393.382 483.816C394.15 484.307 395.078 484.712 396.166 485.032C397.254 485.331 398.321 485.48 399.366 485.48C401.478 485.48 402.534 484.958 402.534 483.912C402.534 483.422 402.246 483.07 401.67 482.856C401.094 482.643 400.209 482.462 399.014 482.312C397.606 482.099 396.443 481.854 395.526 481.576C394.609 481.299 393.809 480.808 393.126 480.104C392.465 479.4 392.134 478.398 392.134 477.096C392.134 476.008 392.443 475.048 393.062 474.216C393.702 473.363 394.619 472.702 395.814 472.232C397.03 471.763 398.459 471.528 400.102 471.528C401.318 471.528 402.523 471.667 403.718 471.944C404.934 472.2 405.937 472.563 406.726 473.032L405.062 476.584C403.547 475.731 401.894 475.304 400.102 475.304C399.035 475.304 398.235 475.454 397.702 475.752C397.169 476.051 396.902 476.435 396.902 476.904C396.902 477.438 397.19 477.811 397.766 478.024C398.342 478.238 399.259 478.44 400.518 478.632C401.926 478.867 403.078 479.123 403.974 479.4C404.87 479.656 405.649 480.136 406.31 480.84C406.971 481.544 407.302 482.526 407.302 483.784C407.302 484.851 406.982 485.8 406.342 486.632C405.702 487.464 404.763 488.115 403.526 488.584C402.31 489.032 400.859 489.256 399.174 489.256Z" fill="black"/>
<path d="M410.382 465.256H415.374V489H410.382V465.256Z" fill="black"/>
<path d="M420.007 471.784H424.999V489H420.007V471.784ZM422.503 469.384C421.586 469.384 420.839 469.118 420.263 468.584C419.687 468.051 419.399 467.39 419.399 466.6C419.399 465.811 419.687 465.15 420.263 464.616C420.839 464.083 421.586 463.816 422.503 463.816C423.42 463.816 424.167 464.072 424.743 464.584C425.319 465.096 425.607 465.736 425.607 466.504C425.607 467.336 425.319 468.03 424.743 468.584C424.167 469.118 423.42 469.384 422.503 469.384Z" fill="black"/>
<path d="M447.168 465.256V489H442.4V487.016C441.163 488.51 439.371 489.256 437.024 489.256C435.403 489.256 433.931 488.894 432.608 488.168C431.307 487.443 430.283 486.408 429.536 485.064C428.789 483.72 428.416 482.163 428.416 480.392C428.416 478.622 428.789 477.064 429.536 475.72C430.283 474.376 431.307 473.342 432.608 472.616C433.931 471.891 435.403 471.528 437.024 471.528C439.221 471.528 440.939 472.222 442.176 473.608V465.256H447.168ZM437.888 485.16C439.147 485.16 440.192 484.734 441.024 483.88C441.856 483.006 442.272 481.843 442.272 480.392C442.272 478.942 441.856 477.79 441.024 476.936C440.192 476.062 439.147 475.624 437.888 475.624C436.608 475.624 435.552 476.062 434.72 476.936C433.888 477.79 433.472 478.942 433.472 480.392C433.472 481.843 433.888 483.006 434.72 483.88C435.552 484.734 436.608 485.16 437.888 485.16Z" fill="black"/>
<path d="M468.652 480.456C468.652 480.52 468.62 480.968 468.556 481.8H455.532C455.767 482.867 456.322 483.71 457.196 484.328C458.071 484.947 459.159 485.256 460.46 485.256C461.356 485.256 462.146 485.128 462.828 484.872C463.532 484.595 464.183 484.168 464.78 483.592L467.436 486.472C465.815 488.328 463.447 489.256 460.332 489.256C458.391 489.256 456.674 488.883 455.18 488.136C453.687 487.368 452.535 486.312 451.724 484.968C450.914 483.624 450.508 482.099 450.508 480.392C450.508 478.707 450.903 477.192 451.692 475.848C452.503 474.483 453.602 473.427 454.988 472.68C456.396 471.912 457.964 471.528 459.692 471.528C461.378 471.528 462.903 471.891 464.268 472.616C465.634 473.342 466.7 474.387 467.468 475.752C468.258 477.096 468.652 478.664 468.652 480.456ZM459.724 475.304C458.594 475.304 457.644 475.624 456.876 476.264C456.108 476.904 455.639 477.779 455.468 478.888H463.948C463.778 477.8 463.308 476.936 462.54 476.296C461.772 475.635 460.834 475.304 459.724 475.304Z" fill="black"/>
<path d="M489.512 465.256V489H484.744V487.016C483.506 488.51 481.714 489.256 479.368 489.256C477.746 489.256 476.274 488.894 474.952 488.168C473.65 487.443 472.626 486.408 471.88 485.064C471.133 483.72 470.76 482.163 470.76 480.392C470.76 478.622 471.133 477.064 471.88 475.72C472.626 474.376 473.65 473.342 474.952 472.616C476.274 471.891 477.746 471.528 479.368 471.528C481.565 471.528 483.282 472.222 484.52 473.608V465.256H489.512ZM480.232 485.16C481.49 485.16 482.536 484.734 483.368 483.88C484.2 483.006 484.616 481.843 484.616 480.392C484.616 478.942 484.2 477.79 483.368 476.936C482.536 476.062 481.49 475.624 480.232 475.624C478.952 475.624 477.896 476.062 477.064 476.936C476.232 477.79 475.816 478.942 475.816 480.392C475.816 481.843 476.232 483.006 477.064 483.88C477.896 484.734 478.952 485.16 480.232 485.16Z" fill="black"/>
<path d="M510.996 480.456C510.996 480.52 510.964 480.968 510.9 481.8H497.876C498.111 482.867 498.665 483.71 499.54 484.328C500.415 484.947 501.503 485.256 502.804 485.256C503.7 485.256 504.489 485.128 505.172 484.872C505.876 484.595 506.527 484.168 507.124 483.592L509.78 486.472C508.159 488.328 505.791 489.256 502.676 489.256C500.735 489.256 499.017 488.883 497.524 488.136C496.031 487.368 494.879 486.312 494.068 484.968C493.257 483.624 492.852 482.099 492.852 480.392C492.852 478.707 493.247 477.192 494.036 475.848C494.847 474.483 495.945 473.427 497.332 472.68C498.74 471.912 500.308 471.528 502.036 471.528C503.721 471.528 505.247 471.891 506.612 472.616C507.977 473.342 509.044 474.387 509.812 475.752C510.601 477.096 510.996 478.664 510.996 480.456ZM502.068 475.304C500.937 475.304 499.988 475.624 499.22 476.264C498.452 476.904 497.983 477.779 497.812 478.888H506.292C506.121 477.8 505.652 476.936 504.884 476.296C504.116 475.635 503.177 475.304 502.068 475.304Z" fill="black"/>
<path d="M522.64 489.256C520.805 489.256 519.152 488.883 517.68 488.136C516.229 487.368 515.088 486.312 514.256 484.968C513.445 483.624 513.04 482.099 513.04 480.392C513.04 478.686 513.445 477.16 514.256 475.816C515.088 474.472 516.229 473.427 517.68 472.68C519.152 471.912 520.805 471.528 522.64 471.528C524.453 471.528 526.032 471.912 527.376 472.68C528.741 473.427 529.733 474.504 530.352 475.912L526.48 477.992C525.584 476.414 524.293 475.624 522.608 475.624C521.306 475.624 520.229 476.051 519.376 476.904C518.522 477.758 518.096 478.92 518.096 480.392C518.096 481.864 518.522 483.027 519.376 483.88C520.229 484.734 521.306 485.16 522.608 485.16C524.314 485.16 525.605 484.371 526.48 482.792L530.352 484.904C529.733 486.27 528.741 487.336 527.376 488.104C526.032 488.872 524.453 489.256 522.64 489.256Z" fill="black"/>
<path d="M540.493 482.248L538.093 484.616V489H533.101V465.256H538.093V478.696L545.389 471.784H551.341L544.173 479.08L551.981 489H545.933L540.493 482.248Z" fill="black"/>
<line x1="350" y1="479" x2="250" y2="479" stroke="#C594C5" stroke-width="4"/>
<line x1="477" y1="125" x2="477" y2="352" stroke="#DCBFDC" stroke-width="4"/>
</svg>
