<svg width="950" height="602" viewBox="0 0 950 602" fill="none" xmlns="http://www.w3.org/2000/svg">
<rect width="250" height="600" fill="#C594C5"/>
<path d="M45.7985 304.384H35.3985L33.4145 309.184H28.1025L38.0865 286.784H43.2065L53.2225 309.184H47.7825L45.7985 304.384ZM44.1665 300.448L40.6145 291.872L37.0625 300.448H44.1665Z" fill="black"/>
<path d="M65.3705 291.712C66.9705 291.712 68.4212 292.085 69.7225 292.832C71.0452 293.557 72.0799 294.592 72.8265 295.936C73.5732 297.259 73.9465 298.805 73.9465 300.576C73.9465 302.347 73.5732 303.904 72.8265 305.248C72.0799 306.571 71.0452 307.605 69.7225 308.352C68.4212 309.077 66.9705 309.44 65.3705 309.44C63.1732 309.44 61.4452 308.747 60.1865 307.36V315.392H55.1945V291.968H59.9625V293.952C61.1999 292.459 63.0025 291.712 65.3705 291.712ZM64.5065 305.344C65.7865 305.344 66.8319 304.917 67.6425 304.064C68.4745 303.189 68.8905 302.027 68.8905 300.576C68.8905 299.125 68.4745 297.973 67.6425 297.12C66.8319 296.245 65.7865 295.808 64.5065 295.808C63.2265 295.808 62.1705 296.245 61.3385 297.12C60.5279 297.973 60.1225 299.125 60.1225 300.576C60.1225 302.027 60.5279 303.189 61.3385 304.064C62.1705 304.917 63.2265 305.344 64.5065 305.344Z" fill="black"/>
<path d="M87.4643 291.712C89.0643 291.712 90.515 292.085 91.8163 292.832C93.139 293.557 94.1736 294.592 94.9203 295.936C95.667 297.259 96.0403 298.805 96.0403 300.576C96.0403 302.347 95.667 303.904 94.9203 305.248C94.1736 306.571 93.139 307.605 91.8163 308.352C90.515 309.077 89.0643 309.44 87.4643 309.44C85.267 309.44 83.539 308.747 82.2803 307.36V315.392H77.2883V291.968H82.0563V293.952C83.2936 292.459 85.0963 291.712 87.4643 291.712ZM86.6003 305.344C87.8803 305.344 88.9256 304.917 89.7363 304.064C90.5683 303.189 90.9843 302.027 90.9843 300.576C90.9843 299.125 90.5683 297.973 89.7363 297.12C88.9256 296.245 87.8803 295.808 86.6003 295.808C85.3203 295.808 84.2643 296.245 83.4323 297.12C82.6216 297.973 82.2163 299.125 82.2163 300.576C82.2163 302.027 82.6216 303.189 83.4323 304.064C84.2643 304.917 85.3203 305.344 86.6003 305.344Z" fill="black"/>
<path d="M99.382 285.44H104.374V309.184H99.382V285.44Z" fill="black"/>
<path d="M109.007 291.968H113.999V309.184H109.007V291.968ZM111.503 289.568C110.586 289.568 109.839 289.301 109.263 288.768C108.687 288.235 108.399 287.573 108.399 286.784C108.399 285.995 108.687 285.333 109.263 284.8C109.839 284.267 110.586 284 111.503 284C112.42 284 113.167 284.256 113.743 284.768C114.319 285.28 114.607 285.92 114.607 286.688C114.607 287.52 114.319 288.213 113.743 288.768C113.167 289.301 112.42 289.568 111.503 289.568Z" fill="black"/>
<path d="M126.952 309.44C125.117 309.44 123.464 309.067 121.992 308.32C120.541 307.552 119.4 306.496 118.568 305.152C117.757 303.808 117.352 302.283 117.352 300.576C117.352 298.869 117.757 297.344 118.568 296C119.4 294.656 120.541 293.611 121.992 292.864C123.464 292.096 125.117 291.712 126.952 291.712C128.765 291.712 130.344 292.096 131.688 292.864C133.053 293.611 134.045 294.688 134.664 296.096L130.792 298.176C129.896 296.597 128.605 295.808 126.92 295.808C125.619 295.808 124.541 296.235 123.688 297.088C122.835 297.941 122.408 299.104 122.408 300.576C122.408 302.048 122.835 303.211 123.688 304.064C124.541 304.917 125.619 305.344 126.92 305.344C128.627 305.344 129.917 304.555 130.792 302.976L134.664 305.088C134.045 306.453 133.053 307.52 131.688 308.288C130.344 309.056 128.765 309.44 126.952 309.44Z" fill="black"/>
<path d="M144.482 291.712C147.149 291.712 149.197 292.352 150.626 293.632C152.056 294.891 152.77 296.8 152.77 299.36V309.184H148.098V307.04C147.16 308.64 145.41 309.44 142.85 309.44C141.528 309.44 140.376 309.216 139.394 308.768C138.434 308.32 137.698 307.701 137.186 306.912C136.674 306.123 136.418 305.227 136.418 304.224C136.418 302.624 137.016 301.365 138.21 300.448C139.426 299.531 141.293 299.072 143.81 299.072H147.778C147.778 297.984 147.448 297.152 146.786 296.576C146.125 295.979 145.133 295.68 143.81 295.68C142.893 295.68 141.986 295.829 141.09 296.128C140.216 296.405 139.469 296.789 138.85 297.28L137.058 293.792C137.997 293.131 139.117 292.619 140.418 292.256C141.741 291.893 143.096 291.712 144.482 291.712ZM144.098 306.08C144.952 306.08 145.709 305.888 146.37 305.504C147.032 305.099 147.501 304.512 147.778 303.744V301.984H144.354C142.306 301.984 141.282 302.656 141.282 304C141.282 304.64 141.528 305.152 142.018 305.536C142.53 305.899 143.224 306.08 144.098 306.08Z" fill="black"/>
<path d="M168.392 308.352C167.902 308.715 167.294 308.992 166.568 309.184C165.864 309.355 165.118 309.44 164.328 309.44C162.28 309.44 160.691 308.917 159.56 307.872C158.451 306.827 157.896 305.291 157.896 303.264V296.192H155.24V292.352H157.896V288.16H162.888V292.352H167.176V296.192H162.888V303.2C162.888 303.925 163.07 304.491 163.432 304.896C163.816 305.28 164.35 305.472 165.032 305.472C165.822 305.472 166.494 305.259 167.048 304.832L168.392 308.352Z" fill="black"/>
<path d="M171.195 291.968H176.187V309.184H171.195V291.968ZM173.691 289.568C172.773 289.568 172.027 289.301 171.451 288.768C170.875 288.235 170.587 287.573 170.587 286.784C170.587 285.995 170.875 285.333 171.451 284.8C172.027 284.267 172.773 284 173.691 284C174.608 284 175.355 284.256 175.931 284.768C176.507 285.28 176.795 285.92 176.795 286.688C176.795 287.52 176.507 288.213 175.931 288.768C175.355 289.301 174.608 289.568 173.691 289.568Z" fill="black"/>
<path d="M189.012 309.44C187.198 309.44 185.566 309.067 184.116 308.32C182.686 307.552 181.566 306.496 180.756 305.152C179.945 303.808 179.54 302.283 179.54 300.576C179.54 298.869 179.945 297.344 180.756 296C181.566 294.656 182.686 293.611 184.116 292.864C185.566 292.096 187.198 291.712 189.012 291.712C190.825 291.712 192.446 292.096 193.876 292.864C195.305 293.611 196.425 294.656 197.236 296C198.046 297.344 198.452 298.869 198.452 300.576C198.452 302.283 198.046 303.808 197.236 305.152C196.425 306.496 195.305 307.552 193.876 308.32C192.446 309.067 190.825 309.44 189.012 309.44ZM189.012 305.344C190.292 305.344 191.337 304.917 192.148 304.064C192.98 303.189 193.396 302.027 193.396 300.576C193.396 299.125 192.98 297.973 192.148 297.12C191.337 296.245 190.292 295.808 189.012 295.808C187.732 295.808 186.676 296.245 185.844 297.12C185.012 297.973 184.596 299.125 184.596 300.576C184.596 302.027 185.012 303.189 185.844 304.064C186.676 304.917 187.732 305.344 189.012 305.344Z" fill="black"/>
<path d="M212.252 291.712C214.386 291.712 216.103 292.352 217.404 293.632C218.727 294.912 219.388 296.811 219.388 299.328V309.184H214.396V300.096C214.396 298.731 214.098 297.717 213.5 297.056C212.903 296.373 212.039 296.032 210.908 296.032C209.65 296.032 208.647 296.427 207.9 297.216C207.154 297.984 206.78 299.136 206.78 300.672V309.184H201.788V291.968H206.556V293.984C207.218 293.259 208.039 292.704 209.02 292.32C210.002 291.915 211.079 291.712 212.252 291.712Z" fill="black"/>
<rect x="700" y="350" width="250" height="250" fill="#DCBFDC"/>
<path d="M770.069 498L765.749 491.76H765.493H760.981V498H755.797V475.6H765.493C767.477 475.6 769.194 475.931 770.645 476.592C772.117 477.253 773.247 478.192 774.037 479.408C774.826 480.624 775.221 482.064 775.221 483.728C775.221 485.392 774.815 486.832 774.005 488.048C773.215 489.243 772.085 490.16 770.613 490.8L775.637 498H770.069ZM769.973 483.728C769.973 482.469 769.567 481.509 768.757 480.848C767.946 480.165 766.762 479.824 765.205 479.824H760.981V487.632H765.205C766.762 487.632 767.946 487.291 768.757 486.608C769.567 485.925 769.973 484.965 769.973 483.728Z" fill="black"/>
<path d="M795.84 489.456C795.84 489.52 795.808 489.968 795.744 490.8H782.72C782.955 491.867 783.509 492.709 784.384 493.328C785.259 493.947 786.347 494.256 787.648 494.256C788.544 494.256 789.333 494.128 790.016 493.872C790.72 493.595 791.371 493.168 791.968 492.592L794.624 495.472C793.003 497.328 790.635 498.256 787.52 498.256C785.579 498.256 783.861 497.883 782.368 497.136C780.875 496.368 779.723 495.312 778.912 493.968C778.101 492.624 777.696 491.099 777.696 489.392C777.696 487.707 778.091 486.192 778.88 484.848C779.691 483.483 780.789 482.427 782.176 481.68C783.584 480.912 785.152 480.528 786.88 480.528C788.565 480.528 790.091 480.891 791.456 481.616C792.821 482.341 793.888 483.387 794.656 484.752C795.445 486.096 795.84 487.664 795.84 489.456ZM786.912 484.304C785.781 484.304 784.832 484.624 784.064 485.264C783.296 485.904 782.827 486.779 782.656 487.888H791.136C790.965 486.8 790.496 485.936 789.728 485.296C788.96 484.635 788.021 484.304 786.912 484.304Z" fill="black"/>
<path d="M799.163 474.256H804.155V498H799.163V474.256Z" fill="black"/>
<path d="M815.732 480.528C818.399 480.528 820.447 481.168 821.876 482.448C823.306 483.707 824.02 485.616 824.02 488.176V498H819.348V495.856C818.41 497.456 816.66 498.256 814.1 498.256C812.778 498.256 811.626 498.032 810.644 497.584C809.684 497.136 808.948 496.517 808.436 495.728C807.924 494.939 807.668 494.043 807.668 493.04C807.668 491.44 808.266 490.181 809.46 489.264C810.676 488.347 812.543 487.888 815.06 487.888H819.028C819.028 486.8 818.698 485.968 818.036 485.392C817.375 484.795 816.383 484.496 815.06 484.496C814.143 484.496 813.236 484.645 812.34 484.944C811.466 485.221 810.719 485.605 810.1 486.096L808.308 482.608C809.247 481.947 810.367 481.435 811.668 481.072C812.991 480.709 814.346 480.528 815.732 480.528ZM815.348 494.896C816.202 494.896 816.959 494.704 817.62 494.32C818.282 493.915 818.751 493.328 819.028 492.56V490.8H815.604C813.556 490.8 812.532 491.472 812.532 492.816C812.532 493.456 812.778 493.968 813.268 494.352C813.78 494.715 814.474 494.896 815.348 494.896Z" fill="black"/>
<path d="M839.642 497.168C839.152 497.531 838.544 497.808 837.818 498C837.114 498.171 836.368 498.256 835.578 498.256C833.53 498.256 831.941 497.733 830.81 496.688C829.701 495.643 829.146 494.107 829.146 492.08V485.008H826.49V481.168H829.146V476.976H834.138V481.168H838.426V485.008H834.138V492.016C834.138 492.741 834.32 493.307 834.682 493.712C835.066 494.096 835.6 494.288 836.282 494.288C837.072 494.288 837.744 494.075 838.298 493.648L839.642 497.168Z" fill="black"/>
<path d="M842.445 480.784H847.437V498H842.445V480.784ZM844.941 478.384C844.023 478.384 843.277 478.117 842.701 477.584C842.125 477.051 841.837 476.389 841.837 475.6C841.837 474.811 842.125 474.149 842.701 473.616C843.277 473.083 844.023 472.816 844.941 472.816C845.858 472.816 846.605 473.072 847.181 473.584C847.757 474.096 848.045 474.736 848.045 475.504C848.045 476.336 847.757 477.029 847.181 477.584C846.605 478.117 845.858 478.384 844.941 478.384Z" fill="black"/>
<path d="M860.262 498.256C858.448 498.256 856.816 497.883 855.366 497.136C853.936 496.368 852.816 495.312 852.006 493.968C851.195 492.624 850.79 491.099 850.79 489.392C850.79 487.685 851.195 486.16 852.006 484.816C852.816 483.472 853.936 482.427 855.366 481.68C856.816 480.912 858.448 480.528 860.262 480.528C862.075 480.528 863.696 480.912 865.126 481.68C866.555 482.427 867.675 483.472 868.486 484.816C869.296 486.16 869.702 487.685 869.702 489.392C869.702 491.099 869.296 492.624 868.486 493.968C867.675 495.312 866.555 496.368 865.126 497.136C863.696 497.883 862.075 498.256 860.262 498.256ZM860.262 494.16C861.542 494.16 862.587 493.733 863.398 492.88C864.23 492.005 864.646 490.843 864.646 489.392C864.646 487.941 864.23 486.789 863.398 485.936C862.587 485.061 861.542 484.624 860.262 484.624C858.982 484.624 857.926 485.061 857.094 485.936C856.262 486.789 855.846 487.941 855.846 489.392C855.846 490.843 856.262 492.005 857.094 492.88C857.926 493.733 858.982 494.16 860.262 494.16Z" fill="black"/>
<path d="M883.502 480.528C885.636 480.528 887.353 481.168 888.654 482.448C889.977 483.728 890.638 485.627 890.638 488.144V498H885.646V488.912C885.646 487.547 885.348 486.533 884.75 485.872C884.153 485.189 883.289 484.848 882.158 484.848C880.9 484.848 879.897 485.243 879.15 486.032C878.404 486.8 878.03 487.952 878.03 489.488V498H873.038V480.784H877.806V482.8C878.468 482.075 879.289 481.52 880.27 481.136C881.252 480.731 882.329 480.528 883.502 480.528Z" fill="black"/>
<rect x="700" width="250" height="250" fill="#DCBFDC"/>
<path d="M770.069 148L765.749 141.76H765.493H760.981V148H755.797V125.6H765.493C767.477 125.6 769.194 125.931 770.645 126.592C772.117 127.253 773.247 128.192 774.037 129.408C774.826 130.624 775.221 132.064 775.221 133.728C775.221 135.392 774.815 136.832 774.005 138.048C773.215 139.243 772.085 140.16 770.613 140.8L775.637 148H770.069ZM769.973 133.728C769.973 132.469 769.567 131.509 768.757 130.848C767.946 130.165 766.762 129.824 765.205 129.824H760.981V137.632H765.205C766.762 137.632 767.946 137.291 768.757 136.608C769.567 135.925 769.973 134.965 769.973 133.728Z" fill="black"/>
<path d="M795.84 139.456C795.84 139.52 795.808 139.968 795.744 140.8H782.72C782.955 141.867 783.509 142.709 784.384 143.328C785.259 143.947 786.347 144.256 787.648 144.256C788.544 144.256 789.333 144.128 790.016 143.872C790.72 143.595 791.371 143.168 791.968 142.592L794.624 145.472C793.003 147.328 790.635 148.256 787.52 148.256C785.579 148.256 783.861 147.883 782.368 147.136C780.875 146.368 779.723 145.312 778.912 143.968C778.101 142.624 777.696 141.099 777.696 139.392C777.696 137.707 778.091 136.192 778.88 134.848C779.691 133.483 780.789 132.427 782.176 131.68C783.584 130.912 785.152 130.528 786.88 130.528C788.565 130.528 790.091 130.891 791.456 131.616C792.821 132.341 793.888 133.387 794.656 134.752C795.445 136.096 795.84 137.664 795.84 139.456ZM786.912 134.304C785.781 134.304 784.832 134.624 784.064 135.264C783.296 135.904 782.827 136.779 782.656 137.888H791.136C790.965 136.8 790.496 135.936 789.728 135.296C788.96 134.635 788.021 134.304 786.912 134.304Z" fill="black"/>
<path d="M799.163 124.256H804.155V148H799.163V124.256Z" fill="black"/>
<path d="M815.732 130.528C818.399 130.528 820.447 131.168 821.876 132.448C823.306 133.707 824.02 135.616 824.02 138.176V148H819.348V145.856C818.41 147.456 816.66 148.256 814.1 148.256C812.778 148.256 811.626 148.032 810.644 147.584C809.684 147.136 808.948 146.517 808.436 145.728C807.924 144.939 807.668 144.043 807.668 143.04C807.668 141.44 808.266 140.181 809.46 139.264C810.676 138.347 812.543 137.888 815.06 137.888H819.028C819.028 136.8 818.698 135.968 818.036 135.392C817.375 134.795 816.383 134.496 815.06 134.496C814.143 134.496 813.236 134.645 812.34 134.944C811.466 135.221 810.719 135.605 810.1 136.096L808.308 132.608C809.247 131.947 810.367 131.435 811.668 131.072C812.991 130.709 814.346 130.528 815.732 130.528ZM815.348 144.896C816.202 144.896 816.959 144.704 817.62 144.32C818.282 143.915 818.751 143.328 819.028 142.56V140.8H815.604C813.556 140.8 812.532 141.472 812.532 142.816C812.532 143.456 812.778 143.968 813.268 144.352C813.78 144.715 814.474 144.896 815.348 144.896Z" fill="black"/>
<path d="M839.642 147.168C839.152 147.531 838.544 147.808 837.818 148C837.114 148.171 836.368 148.256 835.578 148.256C833.53 148.256 831.941 147.733 830.81 146.688C829.701 145.643 829.146 144.107 829.146 142.08V135.008H826.49V131.168H829.146V126.976H834.138V131.168H838.426V135.008H834.138V142.016C834.138 142.741 834.32 143.307 834.682 143.712C835.066 144.096 835.6 144.288 836.282 144.288C837.072 144.288 837.744 144.075 838.298 143.648L839.642 147.168Z" fill="black"/>
<path d="M842.445 130.784H847.437V148H842.445V130.784ZM844.941 128.384C844.023 128.384 843.277 128.117 842.701 127.584C842.125 127.051 841.837 126.389 841.837 125.6C841.837 124.811 842.125 124.149 842.701 123.616C843.277 123.083 844.023 122.816 844.941 122.816C845.858 122.816 846.605 123.072 847.181 123.584C847.757 124.096 848.045 124.736 848.045 125.504C848.045 126.336 847.757 127.029 847.181 127.584C846.605 128.117 845.858 128.384 844.941 128.384Z" fill="black"/>
<path d="M860.262 148.256C858.448 148.256 856.816 147.883 855.366 147.136C853.936 146.368 852.816 145.312 852.006 143.968C851.195 142.624 850.79 141.099 850.79 139.392C850.79 137.685 851.195 136.16 852.006 134.816C852.816 133.472 853.936 132.427 855.366 131.68C856.816 130.912 858.448 130.528 860.262 130.528C862.075 130.528 863.696 130.912 865.126 131.68C866.555 132.427 867.675 133.472 868.486 134.816C869.296 136.16 869.702 137.685 869.702 139.392C869.702 141.099 869.296 142.624 868.486 143.968C867.675 145.312 866.555 146.368 865.126 147.136C863.696 147.883 862.075 148.256 860.262 148.256ZM860.262 144.16C861.542 144.16 862.587 143.733 863.398 142.88C864.23 142.005 864.646 140.843 864.646 139.392C864.646 137.941 864.23 136.789 863.398 135.936C862.587 135.061 861.542 134.624 860.262 134.624C858.982 134.624 857.926 135.061 857.094 135.936C856.262 136.789 855.846 137.941 855.846 139.392C855.846 140.843 856.262 142.005 857.094 142.88C857.926 143.733 858.982 144.16 860.262 144.16Z" fill="black"/>
<path d="M883.502 130.528C885.636 130.528 887.353 131.168 888.654 132.448C889.977 133.728 890.638 135.627 890.638 138.144V148H885.646V138.912C885.646 137.547 885.348 136.533 884.75 135.872C884.153 135.189 883.289 134.848 882.158 134.848C880.9 134.848 879.897 135.243 879.15 136.032C878.404 136.8 878.03 137.952 878.03 139.488V148H873.038V130.784H877.806V132.8C878.468 132.075 879.289 131.52 880.27 131.136C881.252 130.731 882.329 130.528 883.502 130.528Z" fill="black"/>
<line x1="475" y1="124" x2="700" y2="124" stroke="#DCBFDC" stroke-width="4"/>
<line x1="600" y1="484" x2="700" y2="484" stroke="#DCBFDC" stroke-width="4"/>
<rect x="352" y="354" width="246" height="246" fill="white" stroke="#C594C5" stroke-width="4"/>
<path d="M415.412 497.4L411.092 491.16H410.836H406.324V497.4H401.14V475H410.836C412.82 475 414.538 475.331 415.988 475.992C417.46 476.653 418.591 477.592 419.38 478.808C420.17 480.024 420.564 481.464 420.564 483.128C420.564 484.792 420.159 486.232 419.348 487.448C418.559 488.643 417.428 489.56 415.956 490.2L420.98 497.4H415.412ZM415.316 483.128C415.316 481.869 414.911 480.909 414.1 480.248C413.29 479.565 412.106 479.224 410.548 479.224H406.324V487.032H410.548C412.106 487.032 413.29 486.691 414.1 486.008C414.911 485.325 415.316 484.365 415.316 483.128Z" fill="black"/>
<path d="M441.184 488.856C441.184 488.92 441.152 489.368 441.088 490.2H428.064C428.298 491.267 428.853 492.109 429.728 492.728C430.602 493.347 431.69 493.656 432.992 493.656C433.888 493.656 434.677 493.528 435.36 493.272C436.064 492.995 436.714 492.568 437.312 491.992L439.968 494.872C438.346 496.728 435.978 497.656 432.864 497.656C430.922 497.656 429.205 497.283 427.712 496.536C426.218 495.768 425.066 494.712 424.256 493.368C423.445 492.024 423.04 490.499 423.04 488.792C423.04 487.107 423.434 485.592 424.224 484.248C425.034 482.883 426.133 481.827 427.52 481.08C428.928 480.312 430.496 479.928 432.224 479.928C433.909 479.928 435.434 480.291 436.8 481.016C438.165 481.741 439.232 482.787 440 484.152C440.789 485.496 441.184 487.064 441.184 488.856ZM432.256 483.704C431.125 483.704 430.176 484.024 429.408 484.664C428.64 485.304 428.17 486.179 428 487.288H436.48C436.309 486.2 435.84 485.336 435.072 484.696C434.304 484.035 433.365 483.704 432.256 483.704Z" fill="black"/>
<path d="M450.299 497.656C448.87 497.656 447.472 497.485 446.107 497.144C444.742 496.781 443.654 496.333 442.843 495.8L444.507 492.216C445.275 492.707 446.203 493.112 447.291 493.432C448.379 493.731 449.446 493.88 450.491 493.88C452.603 493.88 453.659 493.357 453.659 492.312C453.659 491.821 453.371 491.469 452.795 491.256C452.219 491.043 451.334 490.861 450.139 490.712C448.731 490.499 447.568 490.253 446.651 489.976C445.734 489.699 444.934 489.208 444.251 488.504C443.59 487.8 443.259 486.797 443.259 485.496C443.259 484.408 443.568 483.448 444.187 482.616C444.827 481.763 445.744 481.101 446.939 480.632C448.155 480.163 449.584 479.928 451.227 479.928C452.443 479.928 453.648 480.067 454.843 480.344C456.059 480.6 457.062 480.963 457.851 481.432L456.187 484.984C454.672 484.131 453.019 483.704 451.227 483.704C450.16 483.704 449.36 483.853 448.827 484.152C448.294 484.451 448.027 484.835 448.027 485.304C448.027 485.837 448.315 486.211 448.891 486.424C449.467 486.637 450.384 486.84 451.643 487.032C453.051 487.267 454.203 487.523 455.099 487.8C455.995 488.056 456.774 488.536 457.435 489.24C458.096 489.944 458.427 490.925 458.427 492.184C458.427 493.251 458.107 494.2 457.467 495.032C456.827 495.864 455.888 496.515 454.651 496.984C453.435 497.432 451.984 497.656 450.299 497.656Z" fill="black"/>
<path d="M469.699 497.656C467.886 497.656 466.254 497.283 464.803 496.536C463.374 495.768 462.254 494.712 461.443 493.368C460.632 492.024 460.227 490.499 460.227 488.792C460.227 487.085 460.632 485.56 461.443 484.216C462.254 482.872 463.374 481.827 464.803 481.08C466.254 480.312 467.886 479.928 469.699 479.928C471.512 479.928 473.134 480.312 474.563 481.08C475.992 481.827 477.112 482.872 477.923 484.216C478.734 485.56 479.139 487.085 479.139 488.792C479.139 490.499 478.734 492.024 477.923 493.368C477.112 494.712 475.992 495.768 474.563 496.536C473.134 497.283 471.512 497.656 469.699 497.656ZM469.699 493.56C470.979 493.56 472.024 493.133 472.835 492.28C473.667 491.405 474.083 490.243 474.083 488.792C474.083 487.341 473.667 486.189 472.835 485.336C472.024 484.461 470.979 484.024 469.699 484.024C468.419 484.024 467.363 484.461 466.531 485.336C465.699 486.189 465.283 487.341 465.283 488.792C465.283 490.243 465.699 491.405 466.531 492.28C467.363 493.133 468.419 493.56 469.699 493.56Z" fill="black"/>
<path d="M499.82 480.184V497.4H495.084V495.352C494.423 496.099 493.633 496.675 492.716 497.08C491.799 497.464 490.807 497.656 489.74 497.656C487.479 497.656 485.687 497.005 484.364 495.704C483.041 494.403 482.38 492.472 482.38 489.912V480.184H487.372V489.176C487.372 491.949 488.535 493.336 490.86 493.336C492.055 493.336 493.015 492.952 493.74 492.184C494.465 491.395 494.828 490.232 494.828 488.696V480.184H499.82Z" fill="black"/>
<path d="M509.213 482.456C509.81 481.624 510.61 480.995 511.613 480.568C512.637 480.141 513.81 479.928 515.133 479.928V484.536C514.578 484.493 514.205 484.472 514.013 484.472C512.583 484.472 511.463 484.877 510.653 485.688C509.842 486.477 509.437 487.672 509.437 489.272V497.4H504.445V480.184H509.213V482.456Z" fill="black"/>
<path d="M526.265 497.656C524.43 497.656 522.777 497.283 521.305 496.536C519.854 495.768 518.713 494.712 517.881 493.368C517.07 492.024 516.665 490.499 516.665 488.792C516.665 487.085 517.07 485.56 517.881 484.216C518.713 482.872 519.854 481.827 521.305 481.08C522.777 480.312 524.43 479.928 526.265 479.928C528.078 479.928 529.657 480.312 531.001 481.08C532.366 481.827 533.358 482.904 533.977 484.312L530.105 486.392C529.209 484.813 527.918 484.024 526.233 484.024C524.931 484.024 523.854 484.451 523.001 485.304C522.147 486.157 521.721 487.32 521.721 488.792C521.721 490.264 522.147 491.427 523.001 492.28C523.854 493.133 524.931 493.56 526.233 493.56C527.939 493.56 529.23 492.771 530.105 491.192L533.977 493.304C533.358 494.669 532.366 495.736 531.001 496.504C529.657 497.272 528.078 497.656 526.265 497.656Z" fill="black"/>
<path d="M553.496 488.856C553.496 488.92 553.464 489.368 553.4 490.2H540.376C540.611 491.267 541.165 492.109 542.04 492.728C542.915 493.347 544.003 493.656 545.304 493.656C546.2 493.656 546.989 493.528 547.672 493.272C548.376 492.995 549.027 492.568 549.624 491.992L552.28 494.872C550.659 496.728 548.291 497.656 545.176 497.656C543.235 497.656 541.517 497.283 540.024 496.536C538.531 495.768 537.379 494.712 536.568 493.368C535.757 492.024 535.352 490.499 535.352 488.792C535.352 487.107 535.747 485.592 536.536 484.248C537.347 482.883 538.445 481.827 539.832 481.08C541.24 480.312 542.808 479.928 544.536 479.928C546.221 479.928 547.747 480.291 549.112 481.016C550.477 481.741 551.544 482.787 552.312 484.152C553.101 485.496 553.496 487.064 553.496 488.856ZM544.568 483.704C543.437 483.704 542.488 484.024 541.72 484.664C540.952 485.304 540.483 486.179 540.312 487.288H548.792C548.621 486.2 548.152 485.336 547.384 484.696C546.616 484.035 545.677 483.704 544.568 483.704Z" fill="black"/>
<line x1="350" y1="479" x2="250" y2="479" stroke="#C594C5" stroke-width="4"/>
<line x1="477" y1="125" x2="477" y2="352" stroke="#DCBFDC" stroke-width="4"/>
</svg>
